<svg width="24" height="24" viewBox="0 0 24 24" fill="none" xmlns="http://www.w3.org/2000/svg">
<g opacity="0.28">
<path d="M11.1521 1.58545C11.7112 1.47152 12.2887 1.47152 12.8478 1.58545C13.4842 1.7151 14.0667 2.03793 14.8558 2.47524L19.1172 4.83377C19.902 5.26749 20.488 5.59137 20.9281 6.05989C20.939 6.07147 20.9498 6.08311 20.9605 6.09481L11.9999 10.867L3.03943 6.09486C3.05017 6.08314 3.06099 6.07149 3.07188 6.05989C3.51195 5.59137 4.09798 5.26749 4.88275 4.83377L9.14416 2.47524C9.93327 2.03793 10.5158 1.7151 11.1521 1.58545Z" fill="#13171F"/>
<path d="M12.9999 22.3797C13.5789 22.2324 14.1299 21.927 14.8558 21.5248L19.1172 19.1662C19.902 18.7325 20.488 18.4086 20.9281 17.9401C21.3168 17.5263 21.6128 17.0361 21.7945 16.5002C22.0011 15.8905 22.0007 15.2292 22.0001 14.365V9.635C22.0005 8.93952 22.0009 8.37547 21.8934 7.86394L12.9999 12.6003L12.9999 22.3797Z" fill="#13171F"/>
</g>
<path d="M2.10661 7.864C1.99905 8.37551 1.99945 8.93954 1.99994 9.63498V14.365C1.99933 15.2292 1.99886 15.8905 2.20552 16.5002C2.38715 17.0361 2.68322 17.5263 3.07191 17.9401C3.51198 18.4086 4.09801 18.7325 4.88279 19.1662L9.1442 21.5248C9.87 21.927 10.4211 22.2324 11 22.3797L10.9999 12.6003L2.10661 7.864Z" fill="#13171F"/>
</svg>
