<svg width="14" height="14" viewBox="0 0 14 14" fill="none" xmlns="http://www.w3.org/2000/svg">
<g clip-path="url(#clip0_1_1350)">
<g opacity="0.28">
<path d="M6.99984 2.33337C5.21052 2.33337 3.76004 3.14745 2.76774 4.10006C2.27116 4.57678 1.8792 5.09721 1.6083 5.5879C1.3458 6.06337 1.1665 6.56631 1.1665 7.00004C1.1665 7.53095 1.43587 8.17929 1.82944 8.77783C2.23689 9.39747 2.82853 10.0426 3.57853 10.5659C3.81039 10.7277 4.12489 10.6999 4.32481 10.5L6.17456 8.65027C5.94673 8.87776 5.57762 8.87766 5.34992 8.64996C4.92831 8.22835 4.6665 7.64421 4.6665 7.00004C4.6665 5.71138 5.71117 4.66671 6.99984 4.66671C7.64401 4.66671 8.22814 4.92851 8.64975 5.35012C8.87747 5.57784 8.87756 5.94698 8.65003 6.17481L10.4998 4.32501C10.6219 4.20296 10.6836 4.03314 10.6684 3.86121C10.6532 3.68928 10.5627 3.5329 10.4211 3.43414C9.50873 2.79751 8.34954 2.33337 6.99984 2.33337Z" fill="#111111"/>
<path d="M8.64948 6.17536C8.42165 6.40289 8.05251 6.4028 7.82479 6.17508C7.61303 5.96332 7.32216 5.83337 6.99984 5.83337C6.3555 5.83337 5.83317 6.35571 5.83317 7.00004C5.83317 7.32237 5.96312 7.61323 6.17488 7.825C6.40258 8.0527 6.40269 8.42181 6.17519 8.64964L8.64948 6.17536Z" fill="#111111"/>
<path d="M7.18974 9.32576C7.16137 9.32804 7.13445 9.34001 7.11432 9.36013L5.85507 10.6194C5.69877 10.7757 5.64424 11.0069 5.71424 11.2166C5.78425 11.4263 5.96675 11.5784 6.18561 11.6094C6.44906 11.6468 6.7207 11.6667 6.99992 11.6667C8.78923 11.6667 10.2397 10.8526 11.232 9.89999C11.7286 9.42327 12.1206 8.90285 12.3915 8.41216C12.654 7.93668 12.8332 7.43375 12.8332 7.00002C12.8332 6.48208 12.577 5.85397 12.2026 5.27188C12.1072 5.12348 11.9497 5.02625 11.7742 5.00742C11.5988 4.98859 11.4243 5.05018 11.2995 5.17495L9.35993 7.11453C9.3398 7.13465 9.32784 7.16157 9.32555 7.18994C9.23396 8.32716 8.32695 9.23416 7.18974 9.32576Z" fill="#111111"/>
</g>
<path d="M12.8332 1.16663L10.0873 3.91245L8.23727 5.76252L5.7624 8.2374L3.91233 10.0875L1.1665 12.8333" stroke="#111111" stroke-width="1.16667" stroke-linecap="round" stroke-linejoin="round"/>
</g>
<defs>
<clipPath id="clip0_1_1350">
<rect width="14" height="14" fill="white"/>
</clipPath>
</defs>
</svg>
