<svg width="684" height="26" viewBox="0 0 684 26" fill="none" xmlns="http://www.w3.org/2000/svg">
<path d="M0 12.2571C0 8.25627 0 6.25588 0.778606 4.72778C1.46349 3.38362 2.55632 2.29079 3.90047 1.60591C5.42858 0.827301 7.42897 0.827301 11.4298 0.827301H672.57C676.571 0.827301 678.571 0.827301 680.1 1.60591C681.444 2.29079 682.537 3.38362 683.221 4.72778C684 6.25588 684 8.25627 684 12.2571V25.8299H0V12.2571Z" fill="white"/>
<circle cx="13.3942" cy="13.3286" r="2.67885" fill="#ED6B5D"/>
<circle cx="22.3237" cy="13.3286" r="2.67885" fill="#F4BE50"/>
<circle cx="31.2533" cy="13.3286" r="2.67885" fill="#61C554"/>
<path d="M49.7374 13.3286C49.7374 13.4315 49.774 13.522 49.8513 13.6002L53.0782 16.7893C53.1474 16.8634 53.2369 16.9004 53.3427 16.9004C53.5543 16.9004 53.717 16.7399 53.717 16.5259C53.717 16.419 53.6723 16.3284 53.6072 16.2585L50.6448 13.3286L53.6072 10.3987C53.6723 10.3288 53.717 10.2341 53.717 10.1313C53.717 9.91729 53.5543 9.75681 53.3427 9.75681C53.2369 9.75681 53.1474 9.79384 53.0782 9.86379L49.8513 13.057C49.774 13.1311 49.7374 13.2257 49.7374 13.3286Z" fill="#8C8C8C"/>
<path d="M73.3619 13.3286C73.3619 13.2257 73.3212 13.1311 73.2439 13.057L70.0211 9.86379C69.9479 9.79384 69.8584 9.75681 69.7526 9.75681C69.545 9.75681 69.3823 9.91729 69.3823 10.1313C69.3823 10.2341 69.423 10.3288 69.4881 10.3987L72.4504 13.3286L69.4881 16.2585C69.423 16.3284 69.3823 16.419 69.3823 16.5259C69.3823 16.7399 69.545 16.9004 69.7526 16.9004C69.8584 16.9004 69.9479 16.8634 70.0211 16.7893L73.2439 13.6002C73.3212 13.522 73.3619 13.4315 73.3619 13.3286Z" fill="black" fill-opacity="0.1"/>
<path d="M214.308 12.7928C214.308 10.7924 214.308 9.79224 214.697 9.02819C215.04 8.35612 215.586 7.8097 216.258 7.46726C217.022 7.07796 218.023 7.07796 220.023 7.07796H494.337C496.338 7.07796 497.338 7.07796 498.102 7.46726C498.774 7.8097 499.32 8.35612 499.663 9.02819C500.052 9.79224 500.052 10.7924 500.052 12.7928V13.8644C500.052 15.8648 500.052 16.865 499.663 17.629C499.32 18.3011 498.774 18.8475 498.102 19.19C497.338 19.5793 496.338 19.5793 494.337 19.5793H220.023C218.023 19.5793 217.022 19.5793 216.258 19.19C215.586 18.8475 215.04 18.3011 214.697 17.629C214.308 16.865 214.308 15.8648 214.308 13.8644V12.7928Z" fill="#F1F1F1"/>
<path d="M333.376 16.0075H335.847C336.244 16.0075 336.454 15.789 336.454 15.3575V13.476C336.454 13.0446 336.244 12.8289 335.847 12.8289H333.376C332.979 12.8289 332.768 13.0446 332.768 13.476V15.3575C332.768 15.789 332.979 16.0075 333.376 16.0075ZM333.241 13.0391H333.67V12.1162C333.67 11.428 334.105 11.0621 334.61 11.0621C335.115 11.0621 335.555 11.428 335.555 12.1162V13.0391H335.982V12.1762C335.982 11.1495 335.318 10.6497 334.61 10.6497C333.905 10.6497 333.241 11.1495 333.241 12.1762V13.0391Z" fill="#8C8C8C"/>
<path d="M342.619 15.8286V13.1816H342.111V12.7735H342.619V12.4334C342.619 12.2293 342.652 12.0612 342.718 11.9289C342.786 11.7948 342.886 11.6956 343.018 11.6313C343.15 11.5652 343.313 11.5321 343.506 11.5321C343.566 11.5321 343.623 11.535 343.676 11.5406C343.73 11.5444 343.783 11.551 343.834 11.5605V11.9544C343.804 11.9488 343.769 11.945 343.729 11.9431C343.69 11.9412 343.648 11.9403 343.605 11.9403C343.429 11.9403 343.302 11.9828 343.225 12.0678C343.149 12.1528 343.112 12.2794 343.112 12.4476V12.7735H343.806V13.1816H343.112V15.8286H342.619ZM344.529 15.8286V12.7735H345.022V15.8286H344.529ZM344.778 12.184C344.685 12.184 344.605 12.1509 344.537 12.0848C344.471 12.0168 344.438 11.9365 344.438 11.8439C344.438 11.7494 344.471 11.6691 344.537 11.603C344.605 11.5369 344.685 11.5038 344.778 11.5038C344.873 11.5038 344.953 11.5369 345.019 11.603C345.085 11.6691 345.118 11.7494 345.118 11.8439C345.118 11.9365 345.085 12.0168 345.019 12.0848C344.953 12.1509 344.873 12.184 344.778 12.184ZM347.21 16.9055C346.964 16.9055 346.75 16.8706 346.566 16.8007C346.383 16.7327 346.237 16.6354 346.127 16.5088C346.019 16.3841 345.952 16.2386 345.926 16.0723L345.932 16.0695H346.442L346.445 16.0723C346.471 16.1876 346.55 16.282 346.683 16.3557C346.815 16.4313 346.991 16.4691 347.21 16.4691C347.484 16.4691 347.697 16.4067 347.85 16.282C348.005 16.1592 348.083 15.9854 348.083 15.7606V15.1428H348.037C347.973 15.2542 347.893 15.3496 347.796 15.429C347.7 15.5083 347.591 15.5688 347.47 15.6104C347.35 15.6501 347.219 15.6699 347.079 15.6699C346.817 15.6699 346.589 15.6075 346.396 15.4828C346.205 15.3563 346.058 15.1824 345.954 14.9614C345.85 14.7403 345.798 14.4871 345.798 14.2018V14.1962C345.798 13.9109 345.85 13.6577 345.954 13.4366C346.06 13.2137 346.209 13.0389 346.402 12.9123C346.595 12.7839 346.824 12.7196 347.091 12.7196C347.234 12.7196 347.367 12.7423 347.487 12.7876C347.608 12.833 347.715 12.8972 347.808 12.9804C347.902 13.0635 347.981 13.1627 348.043 13.2779H348.077V12.7735H348.57V15.7861C348.57 16.0128 348.514 16.2103 348.403 16.3784C348.293 16.5466 348.136 16.676 347.932 16.7667C347.728 16.8593 347.487 16.9055 347.21 16.9055ZM347.187 15.2334C347.376 15.2334 347.538 15.19 347.672 15.1031C347.808 15.0143 347.912 14.8924 347.983 14.7375C348.057 14.5826 348.094 14.404 348.094 14.2018V14.1962C348.094 13.994 348.057 13.8145 347.983 13.6577C347.912 13.5009 347.808 13.3781 347.672 13.2893C347.538 13.2005 347.376 13.1561 347.187 13.1561C346.998 13.1561 346.837 13.2005 346.705 13.2893C346.575 13.3781 346.475 13.5009 346.405 13.6577C346.337 13.8145 346.303 13.994 346.303 14.1962V14.2018C346.303 14.404 346.337 14.5826 346.405 14.7375C346.475 14.8924 346.575 15.0143 346.705 15.1031C346.837 15.19 346.998 15.2334 347.187 15.2334ZM349.488 15.8286V12.7735H349.981V13.2383H350.027C350.095 13.0739 350.199 12.9463 350.339 12.8557C350.48 12.765 350.651 12.7196 350.851 12.7196C350.989 12.7196 351.113 12.7423 351.223 12.7876C351.332 12.833 351.427 12.8963 351.506 12.9775C351.586 13.0569 351.649 13.1495 351.696 13.2553H351.741C351.796 13.1476 351.87 13.054 351.962 12.9747C352.055 12.8934 352.162 12.8311 352.283 12.7876C352.405 12.7423 352.537 12.7196 352.677 12.7196C352.884 12.7196 353.06 12.7584 353.204 12.8358C353.349 12.9133 353.46 13.0266 353.535 13.1759C353.611 13.3233 353.649 13.5037 353.649 13.7172V15.8286H353.156V13.8306C353.156 13.6794 353.132 13.5547 353.085 13.4565C353.039 13.3563 352.969 13.2817 352.875 13.2326C352.781 13.1816 352.662 13.1561 352.518 13.1561C352.376 13.1561 352.252 13.1882 352.147 13.2524C352.041 13.3167 351.959 13.4026 351.9 13.5103C351.842 13.6161 351.812 13.7342 351.812 13.8646V15.8286H351.319V13.7541C351.319 13.6331 351.293 13.5283 351.24 13.4395C351.189 13.3488 351.115 13.2789 351.019 13.2298C350.924 13.1806 350.813 13.1561 350.684 13.1561C350.552 13.1561 350.432 13.191 350.324 13.2609C350.219 13.3308 350.134 13.4253 350.072 13.5443C350.012 13.6615 349.981 13.7918 349.981 13.9354V15.8286H349.488ZM355.377 15.8824C355.185 15.8824 355.011 15.8456 354.856 15.7719C354.703 15.6982 354.581 15.5934 354.49 15.4573C354.402 15.3213 354.357 15.1607 354.357 14.9755V14.9699C354.357 14.7885 354.401 14.6336 354.488 14.5051C354.575 14.3747 354.701 14.2727 354.867 14.199C355.034 14.1253 355.235 14.0819 355.471 14.0686L356.593 14.0006V14.3946L355.531 14.4626C355.298 14.4758 355.128 14.524 355.02 14.6071C354.915 14.6902 354.862 14.8074 354.862 14.9585V14.9642C354.862 15.1191 354.92 15.2401 355.037 15.327C355.155 15.412 355.302 15.4545 355.48 15.4545C355.648 15.4545 355.797 15.4214 355.927 15.3553C356.058 15.2873 356.16 15.1957 356.233 15.0804C356.309 14.9652 356.347 14.8348 356.347 14.6893V13.7371C356.347 13.5481 356.289 13.4045 356.174 13.3063C356.061 13.2061 355.89 13.1561 355.661 13.1561C355.478 13.1561 355.327 13.1891 355.21 13.2553C355.093 13.3195 355.015 13.4111 354.975 13.5302L354.972 13.5387H354.479L354.482 13.5217C354.508 13.3611 354.575 13.2213 354.68 13.1022C354.788 12.9813 354.927 12.8878 355.097 12.8216C355.267 12.7536 355.461 12.7196 355.678 12.7196C355.927 12.7196 356.138 12.7602 356.31 12.8415C356.484 12.9227 356.615 13.0399 356.704 13.1929C356.795 13.3441 356.84 13.5254 356.84 13.7371V15.8286H356.347V15.378H356.301C356.237 15.4857 356.159 15.5773 356.066 15.6529C355.975 15.7285 355.873 15.7861 355.757 15.8258C355.642 15.8636 355.515 15.8824 355.377 15.8824ZM358.144 15.8569C358.043 15.8569 357.956 15.821 357.883 15.7492C357.811 15.6756 357.775 15.5886 357.775 15.4885C357.775 15.3865 357.811 15.2996 357.883 15.2278C357.956 15.156 358.043 15.1201 358.144 15.1201C358.246 15.1201 358.332 15.156 358.404 15.2278C358.476 15.2996 358.512 15.3865 358.512 15.4885C358.512 15.5886 358.476 15.6756 358.404 15.7492C358.332 15.821 358.246 15.8569 358.144 15.8569ZM360.601 15.8824C360.315 15.8824 360.068 15.8173 359.858 15.6869C359.648 15.5565 359.486 15.3723 359.371 15.1343C359.255 14.8962 359.198 14.6156 359.198 14.2925V14.2869C359.198 13.9694 359.255 13.6936 359.368 13.4593C359.483 13.225 359.646 13.0437 359.855 12.9152C360.065 12.7848 360.313 12.7196 360.598 12.7196C360.845 12.7196 361.059 12.7631 361.238 12.85C361.418 12.9369 361.561 13.054 361.669 13.2014C361.777 13.3469 361.846 13.5103 361.876 13.6917L361.879 13.7087H361.389L361.386 13.7002C361.348 13.5491 361.262 13.4206 361.128 13.3148C360.994 13.209 360.817 13.1561 360.598 13.1561C360.415 13.1561 360.256 13.2024 360.122 13.2949C359.988 13.3875 359.884 13.5188 359.81 13.6889C359.738 13.857 359.702 14.0564 359.702 14.2869V14.2925C359.702 14.5268 359.739 14.7309 359.813 14.9047C359.887 15.0766 359.99 15.2098 360.125 15.3043C360.259 15.3988 360.416 15.446 360.598 15.446C360.804 15.446 360.972 15.4016 361.102 15.3128C361.233 15.224 361.326 15.0946 361.383 14.9245L361.389 14.9075L361.876 14.9047L361.87 14.9359C361.829 15.1191 361.755 15.2826 361.649 15.4262C361.543 15.5679 361.404 15.6793 361.23 15.7606C361.056 15.8418 360.846 15.8824 360.601 15.8824ZM363.854 15.8824C363.565 15.8824 363.315 15.8192 363.103 15.6926C362.893 15.5641 362.731 15.3818 362.616 15.1456C362.502 14.9094 362.446 14.6288 362.446 14.3039V14.2982C362.446 13.9713 362.502 13.6898 362.616 13.4536C362.731 13.2175 362.893 13.0361 363.103 12.9095C363.315 12.7829 363.565 12.7196 363.854 12.7196C364.145 12.7196 364.396 12.7829 364.605 12.9095C364.815 13.0361 364.976 13.2175 365.09 13.4536C365.205 13.6898 365.263 13.9713 365.263 14.2982V14.3039C365.263 14.6288 365.205 14.9094 365.09 15.1456C364.976 15.3818 364.815 15.5641 364.605 15.6926C364.396 15.8192 364.145 15.8824 363.854 15.8824ZM363.854 15.446C364.047 15.446 364.21 15.4007 364.344 15.31C364.479 15.2193 364.581 15.0889 364.651 14.9189C364.722 14.7488 364.758 14.5438 364.758 14.3039V14.2982C364.758 14.0564 364.722 13.8504 364.651 13.6804C364.581 13.5103 364.479 13.3809 364.344 13.2921C364.21 13.2014 364.047 13.1561 363.854 13.1561C363.661 13.1561 363.498 13.2014 363.364 13.2921C363.23 13.3809 363.127 13.5103 363.055 13.6804C362.985 13.8504 362.95 14.0564 362.95 14.2982V14.3039C362.95 14.5438 362.985 14.7488 363.055 14.9189C363.127 15.0889 363.23 15.2193 363.364 15.31C363.498 15.4007 363.661 15.446 363.854 15.446ZM366.028 15.8286V12.7735H366.521V13.2383H366.566C366.634 13.0739 366.738 12.9463 366.878 12.8557C367.02 12.765 367.191 12.7196 367.391 12.7196C367.529 12.7196 367.653 12.7423 367.762 12.7876C367.872 12.833 367.966 12.8963 368.046 12.9775C368.125 13.0569 368.188 13.1495 368.236 13.2553H368.281C368.336 13.1476 368.409 13.054 368.502 12.9747C368.595 12.8934 368.701 12.8311 368.822 12.7876C368.945 12.7423 369.076 12.7196 369.216 12.7196C369.424 12.7196 369.6 12.7584 369.743 12.8358C369.889 12.9133 369.999 13.0266 370.075 13.1759C370.151 13.3233 370.188 13.5037 370.188 13.7172V15.8286H369.695V13.8306C369.695 13.6794 369.672 13.5547 369.624 13.4565C369.579 13.3563 369.509 13.2817 369.415 13.2326C369.32 13.1816 369.201 13.1561 369.058 13.1561C368.916 13.1561 368.792 13.1882 368.686 13.2524C368.58 13.3167 368.498 13.4026 368.44 13.5103C368.381 13.6161 368.352 13.7342 368.352 13.8646V15.8286H367.859V13.7541C367.859 13.6331 367.832 13.5283 367.779 13.4395C367.728 13.3488 367.655 13.2789 367.558 13.2298C367.464 13.1806 367.352 13.1561 367.224 13.1561C367.092 13.1561 366.972 13.191 366.864 13.2609C366.758 13.3308 366.674 13.4253 366.612 13.5443C366.551 13.6615 366.521 13.7918 366.521 13.9354V15.8286H366.028Z" fill="black"/>
<path d="M488.913 13.8051C488.913 15.027 489.882 16.0075 491.088 16.0075C492.294 16.0075 493.261 15.027 493.261 13.8051C493.261 13.6857 493.177 13.5986 493.057 13.5986C492.941 13.5986 492.865 13.6857 492.865 13.8051C492.865 14.8055 492.075 15.6068 491.088 15.6068C490.101 15.6068 489.309 14.8055 489.309 13.8051C489.309 12.8073 490.101 12.0085 491.088 12.0085C491.275 12.0085 491.45 12.0234 491.595 12.0582L490.859 12.7948C490.822 12.8346 490.802 12.8844 490.802 12.9367C490.802 13.0511 490.886 13.1357 490.997 13.1357C491.058 13.1357 491.105 13.1158 491.14 13.0785L492.153 12.0483C492.198 12.006 492.215 11.9562 492.215 11.899C492.215 11.8442 492.193 11.7895 492.153 11.7497L491.14 10.7095C491.105 10.6697 491.056 10.6497 490.997 10.6497C490.886 10.6497 490.802 10.7393 490.802 10.8538C490.802 10.9061 490.822 10.9558 490.857 10.9956L491.511 11.6501C491.383 11.6252 491.238 11.6078 491.088 11.6078C489.882 11.6078 488.913 12.5858 488.913 13.8051Z" fill="#8C8C8C"/>
<path d="M642.964 14.4221C643.1 14.4221 643.217 14.3082 643.217 14.1753V10.9247L643.198 10.45L643.41 10.6747L643.891 11.1874C643.935 11.2381 643.999 11.2634 644.062 11.2634C644.192 11.2634 644.293 11.1684 644.293 11.0387C644.293 10.9722 644.265 10.9216 644.217 10.8741L643.147 9.84226C643.084 9.77896 643.03 9.75681 642.964 9.75681C642.9 9.75681 642.847 9.77896 642.78 9.84226L641.71 10.8741C641.663 10.9216 641.638 10.9722 641.638 11.0387C641.638 11.1684 641.732 11.2634 641.865 11.2634C641.926 11.2634 641.995 11.2381 642.039 11.1874L642.517 10.6747L642.733 10.45L642.714 10.9247V14.1753C642.714 14.3082 642.828 14.4221 642.964 14.4221ZM641.15 16.9004H644.78C645.442 16.9004 645.774 16.5712 645.774 15.9192V12.7605C645.774 12.1085 645.442 11.7793 644.78 11.7793H643.897V12.2889H644.771C645.084 12.2889 645.265 12.4598 645.265 12.789V15.8907C645.265 16.2199 645.084 16.3908 644.771 16.3908H641.156C640.84 16.3908 640.666 16.2199 640.666 15.8907V12.789C640.666 12.4598 640.84 12.2889 641.156 12.2889H642.033V11.7793H641.15C640.489 11.7793 640.156 12.1085 640.156 12.7605V15.9192C640.156 16.5712 640.489 16.9004 641.15 16.9004Z" fill="#8C8C8C"/>
<path d="M662.569 13.3286C662.569 13.5408 662.747 13.7139 662.955 13.7139H665.756V16.5151C665.756 16.7229 665.929 16.9004 666.141 16.9004C666.353 16.9004 666.531 16.7229 666.531 16.5151V13.7139H669.327C669.535 13.7139 669.713 13.5408 669.713 13.3286C669.713 13.1165 669.535 12.939 669.327 12.939H666.531V10.1421C666.531 9.93431 666.353 9.75681 666.141 9.75681C665.929 9.75681 665.756 9.93431 665.756 10.1421V12.939H662.955C662.747 12.939 662.569 13.1165 662.569 13.3286Z" fill="#8C8C8C"/>
</svg>
