<svg width="69" height="15" viewBox="0 0 69 15" fill="none" xmlns="http://www.w3.org/2000/svg">
<circle cx="3.39418" cy="7.3286" r="2.67885" fill="#ED6B5D"/>
<circle cx="12.3239" cy="7.3286" r="2.67885" fill="#F4BE50"/>
<circle cx="21.2531" cy="7.3286" r="2.67885" fill="#61C554"/>
<path d="M39.7373 7.32861C39.7373 7.43148 39.7739 7.52201 39.8512 7.6002L43.0781 10.7893C43.1473 10.8634 43.2368 10.9004 43.3426 10.9004C43.5542 10.9004 43.717 10.7399 43.717 10.5259C43.717 10.419 43.6722 10.3284 43.6071 10.2585L40.6447 7.32861L43.6071 4.39874C43.6722 4.32879 43.717 4.23414 43.717 4.13127C43.717 3.91729 43.5542 3.75681 43.3426 3.75681C43.2368 3.75681 43.1473 3.79384 43.0781 3.86379L39.8512 7.05702C39.7739 7.13109 39.7373 7.22573 39.7373 7.32861Z" fill="#8C8C8C"/>
<path d="M63.362 7.32861C63.362 7.22573 63.3213 7.13109 63.244 7.05702L60.0212 3.86379C59.9479 3.79384 59.8584 3.75681 59.7526 3.75681C59.5451 3.75681 59.3823 3.91729 59.3823 4.13127C59.3823 4.23414 59.423 4.32879 59.4881 4.39874L62.4505 7.32861L59.4881 10.2585C59.423 10.3284 59.3823 10.419 59.3823 10.5259C59.3823 10.7399 59.5451 10.9004 59.7526 10.9004C59.8584 10.9004 59.9479 10.8634 60.0212 10.7893L63.244 7.6002C63.3213 7.52201 63.362 7.43148 63.362 7.32861Z" fill="black" fill-opacity="0.1"/>
</svg>
