<svg width="343" height="436" viewBox="0 0 343 436" fill="none" xmlns="http://www.w3.org/2000/svg">
<g filter="url(#filter0_d_1_587)">
<g clip-path="url(#clip0_1_587)">
<rect x="7.78638" y="6.22421" width="326.82" height="420.58" rx="8.9295" fill="white"/>
<path d="M40.6419 69.9266V64.2641H44.2364V65.0254H41.5209V66.6774H44.0912V67.4073H41.5209V69.1653H44.2364V69.9266H40.6419ZM45.4097 69.9266V65.665H46.2612V66.3204H46.3279C46.4221 66.0849 46.5686 65.9031 46.7674 65.7749C46.9689 65.6467 47.2095 65.5826 47.4895 65.5826C47.683 65.5826 47.857 65.614 48.0114 65.6768C48.1657 65.7396 48.2978 65.8285 48.4077 65.9436C48.5202 66.0561 48.6078 66.1895 48.6706 66.3439H48.7373C48.808 66.1895 48.9074 66.0561 49.0355 65.9436C49.1637 65.8285 49.3129 65.7396 49.4829 65.6768C49.6556 65.614 49.8387 65.5826 50.0323 65.5826C50.32 65.5826 50.5659 65.6389 50.77 65.7514C50.9741 65.8612 51.1297 66.0208 51.237 66.2301C51.3442 66.4394 51.3979 66.6918 51.3979 66.9874V69.9266H50.5463V67.1915C50.5463 66.9953 50.5162 66.8331 50.4561 66.7049C50.3959 66.5741 50.3043 66.476 50.1814 66.4106C50.061 66.3452 49.9093 66.3125 49.7262 66.3125C49.5457 66.3125 49.3874 66.3544 49.2514 66.4381C49.118 66.5192 49.0133 66.629 48.9374 66.7677C48.8642 66.9037 48.8276 67.0581 48.8276 67.2307V69.9266H47.976V67.1052C47.976 66.943 47.942 66.803 47.874 66.6853C47.8086 66.565 47.7144 66.4734 47.5915 66.4106C47.4685 66.3452 47.3233 66.3125 47.1559 66.3125C46.9859 66.3125 46.8328 66.357 46.6968 66.4459C46.5634 66.5349 46.4574 66.6552 46.3789 66.8069C46.3005 66.9561 46.2612 67.1235 46.2612 67.3092V69.9266H45.4097ZM53.7602 69.9972C53.4907 69.9972 53.2487 69.9462 53.0342 69.8442C52.8223 69.7395 52.6549 69.5917 52.5319 69.4008C52.409 69.2098 52.3475 68.9861 52.3475 68.7297V68.7219C52.3475 68.4655 52.409 68.2471 52.5319 68.0666C52.6575 67.8861 52.838 67.7448 53.0734 67.6428C53.3115 67.5381 53.5993 67.4753 53.9367 67.4544L55.5103 67.3602V67.9606L54.0545 68.0548C53.7615 68.0731 53.5456 68.1359 53.407 68.2432C53.2683 68.3478 53.199 68.4956 53.199 68.6866V68.6944C53.199 68.888 53.2736 69.0411 53.4227 69.1536C53.5718 69.2634 53.7602 69.3184 53.9878 69.3184C54.1997 69.3184 54.388 69.2765 54.5528 69.1928C54.7203 69.1065 54.8511 68.9914 54.9452 68.8475C55.0394 68.701 55.0865 68.5362 55.0865 68.353V67.011C55.0865 66.7755 55.0133 66.5963 54.8668 66.4734C54.7229 66.3478 54.5084 66.285 54.2232 66.285C53.9851 66.285 53.7902 66.3269 53.6385 66.4106C53.4894 66.4943 53.39 66.612 53.3403 66.7638L53.3324 66.7755H52.5123L52.5162 66.7481C52.5502 66.5126 52.6431 66.3086 52.7948 66.1359C52.9492 65.9606 53.1506 65.8246 53.3991 65.7278C53.6503 65.631 53.9367 65.5826 54.2585 65.5826C54.6169 65.5826 54.9204 65.6402 55.1689 65.7553C55.4201 65.8678 55.6097 66.0313 55.7379 66.2458C55.8687 66.4577 55.9341 66.7128 55.9341 67.011V69.9266H55.0865V69.3223H55.0237C54.94 69.4662 54.8354 69.5891 54.7098 69.6912C54.5842 69.7906 54.4416 69.8664 54.2821 69.9187C54.1225 69.9711 53.9485 69.9972 53.7602 69.9972ZM57.1467 69.9266V65.665H58.0021V69.9266H57.1467ZM57.5783 64.9038C57.4318 64.9038 57.3062 64.8514 57.2016 64.7468C57.097 64.6421 57.0446 64.5166 57.0446 64.3701C57.0446 64.2236 57.097 64.0993 57.2016 63.9973C57.3062 63.8926 57.4318 63.8403 57.5783 63.8403C57.7248 63.8403 57.8504 63.8926 57.955 63.9973C58.0597 64.0993 58.112 64.2236 58.112 64.3701C58.112 64.5166 58.0597 64.6421 57.955 64.7468C57.8504 64.8514 57.7248 64.9038 57.5783 64.9038ZM59.2774 69.9266V63.9934H60.129V69.9266H59.2774Z" fill="#6A7385"/>
<path d="M41.0814 113.681V112.963H42.7923C43.19 112.963 43.4908 112.883 43.6949 112.724C43.8989 112.564 44.0009 112.332 44.0009 112.029V112.021C44.0009 111.817 43.9538 111.647 43.8597 111.511C43.7655 111.375 43.6242 111.273 43.4359 111.205C43.2501 111.134 43.0186 111.099 42.7413 111.099H41.0814V110.428H42.5647C42.9545 110.428 43.2488 110.357 43.4476 110.216C43.6465 110.072 43.7459 109.863 43.7459 109.588V109.58C43.7459 109.314 43.6556 109.107 43.4751 108.96C43.2946 108.811 43.0408 108.737 42.7138 108.737H41.0814V108.019H42.9218C43.275 108.019 43.5784 108.076 43.8322 108.191C44.0886 108.306 44.2848 108.47 44.4208 108.682C44.5568 108.891 44.6249 109.14 44.6249 109.427V109.435C44.6249 109.634 44.5804 109.82 44.4914 109.992C44.4025 110.162 44.2835 110.306 44.1343 110.424C43.9852 110.542 43.8165 110.616 43.6281 110.648V110.714C43.8845 110.741 44.1082 110.815 44.2992 110.938C44.4901 111.061 44.6393 111.221 44.7465 111.417C44.8538 111.61 44.9074 111.83 44.9074 112.076V112.084C44.9074 112.414 44.8289 112.699 44.672 112.939C44.5176 113.177 44.2965 113.361 44.0088 113.489C43.721 113.617 43.3757 113.681 42.9728 113.681H41.0814ZM40.6419 113.681V108.019H41.5209V113.681H40.6419ZM45.9473 113.681V109.419H46.8027V113.681H45.9473ZM46.3789 108.658C46.2324 108.658 46.1069 108.606 46.0022 108.501C45.8976 108.397 45.8453 108.271 45.8453 108.125C45.8453 107.978 45.8976 107.854 46.0022 107.752C46.1069 107.647 46.2324 107.595 46.3789 107.595C46.5254 107.595 46.651 107.647 46.7556 107.752C46.8603 107.854 46.9126 107.978 46.9126 108.125C46.9126 108.271 46.8603 108.397 46.7556 108.501C46.651 108.606 46.5254 108.658 46.3789 108.658ZM48.0781 113.681V107.748H48.9296V113.681H48.0781ZM50.2363 113.681V107.748H51.0879V113.681H50.2363ZM52.3671 113.681V109.419H53.2226V113.681H52.3671ZM52.7988 108.658C52.6523 108.658 52.5267 108.606 52.422 108.501C52.3174 108.397 52.2651 108.271 52.2651 108.125C52.2651 107.978 52.3174 107.854 52.422 107.752C52.5267 107.647 52.6523 107.595 52.7988 107.595C52.9453 107.595 53.0708 107.647 53.1755 107.752C53.2801 107.854 53.3324 107.978 53.3324 108.125C53.3324 108.271 53.2801 108.397 53.1755 108.501C53.0708 108.606 52.9453 108.658 52.7988 108.658ZM54.4587 113.681V109.419H55.3102V110.063H55.3769C55.4815 109.835 55.6359 109.658 55.8399 109.529C56.044 109.401 56.3017 109.337 56.613 109.337C57.0917 109.337 57.458 109.474 57.7117 109.749C57.9655 110.024 58.0924 110.415 58.0924 110.922V113.681H57.2369V111.123C57.2369 110.767 57.1624 110.503 57.0132 110.33C56.8667 110.155 56.6365 110.067 56.3226 110.067C56.1159 110.067 55.9367 110.113 55.785 110.204C55.6333 110.293 55.5155 110.421 55.4318 110.589C55.3507 110.754 55.3102 110.951 55.3102 111.181V113.681H54.4587ZM61.0786 115.184C60.7176 115.184 60.4037 115.134 60.1368 115.035C59.8726 114.935 59.6633 114.797 59.509 114.619C59.3546 114.441 59.2604 114.234 59.2264 113.999L59.2304 113.991H60.0937L60.0976 113.999C60.1342 114.145 60.2375 114.266 60.4076 114.36C60.5776 114.454 60.8052 114.501 61.0904 114.501C61.4409 114.501 61.7143 114.421 61.9105 114.262C62.1093 114.102 62.2087 113.879 62.2087 113.591V112.755H62.142C62.0583 112.907 61.9511 113.037 61.8203 113.147C61.6895 113.255 61.5403 113.336 61.3729 113.391C61.2055 113.446 61.0237 113.473 60.8275 113.473C60.4664 113.473 60.1525 113.387 59.8857 113.214C59.6215 113.039 59.4174 112.798 59.2735 112.492C59.1323 112.183 59.0616 111.829 59.0616 111.429V111.421C59.0616 111.015 59.1336 110.657 59.2774 110.346C59.4213 110.032 59.6267 109.787 59.8935 109.612C60.1604 109.434 60.4782 109.345 60.8471 109.345C61.0459 109.345 61.2277 109.376 61.3925 109.439C61.56 109.502 61.7078 109.591 61.836 109.706C61.9641 109.821 62.0701 109.958 62.1538 110.118H62.2048V109.419H63.0564V113.595C63.0564 113.916 62.9753 114.196 62.8131 114.434C62.6535 114.673 62.4259 114.857 62.1303 114.988C61.8347 115.119 61.4841 115.184 61.0786 115.184ZM61.0668 112.767C61.3075 112.767 61.5142 112.71 61.6868 112.598C61.8595 112.483 61.9916 112.325 62.0832 112.123C62.1774 111.922 62.2244 111.689 62.2244 111.425V111.417C62.2244 111.155 62.1774 110.922 62.0832 110.718C61.9916 110.514 61.8595 110.355 61.6868 110.24C61.5142 110.124 61.3075 110.067 61.0668 110.067C60.8262 110.067 60.6208 110.124 60.4508 110.24C60.2833 110.355 60.1551 110.514 60.0662 110.718C59.9772 110.92 59.9328 111.153 59.9328 111.417V111.425C59.9328 111.689 59.9772 111.922 60.0662 112.123C60.1551 112.325 60.2833 112.483 60.4508 112.598C60.6208 112.71 60.8262 112.767 61.0668 112.767ZM67.6436 113.752C67.3742 113.752 67.1322 113.701 66.9177 113.599C66.7058 113.494 66.5383 113.346 66.4154 113.155C66.2924 112.964 66.2309 112.741 66.2309 112.484V112.476C66.2309 112.22 66.2924 112.002 66.4154 111.821C66.541 111.641 66.7215 111.499 66.9569 111.397C67.195 111.293 67.4827 111.23 67.8202 111.209L69.3938 111.115V111.715L67.9379 111.809C67.6449 111.828 67.4291 111.89 67.2905 111.998C67.1518 112.102 67.0825 112.25 67.0825 112.441V112.449C67.0825 112.642 67.157 112.795 67.3062 112.908C67.4553 113.018 67.6436 113.073 67.8712 113.073C68.0831 113.073 68.2715 113.031 68.4363 112.947C68.6037 112.861 68.7345 112.746 68.8287 112.602C68.9229 112.455 68.97 112.291 68.97 112.107V110.765C68.97 110.53 68.8967 110.351 68.7502 110.228C68.6063 110.102 68.3918 110.039 68.1067 110.039C67.8686 110.039 67.6737 110.081 67.522 110.165C67.3729 110.249 67.2735 110.366 67.2237 110.518L67.2159 110.53H66.3958L66.3997 110.503C66.4337 110.267 66.5266 110.063 66.6783 109.89C66.8326 109.715 67.0341 109.579 67.2826 109.482C67.5337 109.385 67.8202 109.337 68.142 109.337C68.5004 109.337 68.8038 109.395 69.0524 109.51C69.3035 109.622 69.4932 109.786 69.6214 110C69.7522 110.212 69.8176 110.467 69.8176 110.765V113.681H68.97V113.077H68.9072C68.8235 113.221 68.7188 113.344 68.5933 113.446C68.4677 113.545 68.3251 113.621 68.1655 113.673C68.0059 113.726 67.832 113.752 67.6436 113.752ZM72.5723 113.752C72.2165 113.752 71.9052 113.663 71.6384 113.485C71.3741 113.304 71.1688 113.049 71.0223 112.72C70.8784 112.39 70.8064 112.002 70.8064 111.554V111.546C70.8064 111.096 70.8784 110.707 71.0223 110.377C71.1662 110.047 71.3702 109.794 71.6344 109.616C71.8987 109.435 72.2113 109.345 72.5723 109.345C72.7685 109.345 72.9516 109.376 73.1217 109.439C73.2917 109.499 73.4421 109.586 73.5729 109.698C73.7037 109.808 73.8071 109.94 73.8829 110.094H73.9457V107.748H74.8012V113.681H73.9457V113.01H73.8829C73.7992 113.164 73.6933 113.298 73.5651 113.41C73.4369 113.52 73.2891 113.605 73.1217 113.665C72.9542 113.723 72.7711 113.752 72.5723 113.752ZM72.8156 113.022C73.051 113.022 73.2551 112.963 73.4277 112.845C73.6004 112.727 73.7325 112.559 73.8241 112.339C73.9156 112.117 73.9614 111.855 73.9614 111.554V111.546C73.9614 111.243 73.9143 110.981 73.8202 110.762C73.7286 110.542 73.5965 110.373 73.4238 110.255C73.2538 110.135 73.051 110.075 72.8156 110.075C72.5801 110.075 72.3761 110.135 72.2034 110.255C72.0334 110.373 71.9026 110.542 71.811 110.762C71.7221 110.979 71.6776 111.24 71.6776 111.546V111.554C71.6776 111.858 71.7221 112.119 71.811 112.339C71.9026 112.559 72.0334 112.727 72.2034 112.845C72.3761 112.963 72.5801 113.022 72.8156 113.022ZM77.6187 113.752C77.2629 113.752 76.9516 113.663 76.6847 113.485C76.4205 113.304 76.2152 113.049 76.0687 112.72C75.9248 112.39 75.8528 112.002 75.8528 111.554V111.546C75.8528 111.096 75.9248 110.707 76.0687 110.377C76.2125 110.047 76.4166 109.794 76.6808 109.616C76.945 109.435 77.2577 109.345 77.6187 109.345C77.8149 109.345 77.998 109.376 78.1681 109.439C78.3381 109.499 78.4885 109.586 78.6193 109.698C78.7501 109.808 78.8535 109.94 78.9293 110.094H78.9921V107.748H79.8476V113.681H78.9921V113.01H78.9293C78.8456 113.164 78.7397 113.298 78.6115 113.41C78.4833 113.52 78.3355 113.605 78.1681 113.665C78.0006 113.723 77.8175 113.752 77.6187 113.752ZM77.862 113.022C78.0974 113.022 78.3015 112.963 78.4741 112.845C78.6468 112.727 78.7789 112.559 78.8705 112.339C78.962 112.117 79.0078 111.855 79.0078 111.554V111.546C79.0078 111.243 78.9607 110.981 78.8665 110.762C78.775 110.542 78.6429 110.373 78.4702 110.255C78.3002 110.135 78.0974 110.075 77.862 110.075C77.6265 110.075 77.4225 110.135 77.2498 110.255C77.0798 110.373 76.949 110.542 76.8574 110.762C76.7685 110.979 76.724 111.24 76.724 111.546V111.554C76.724 111.858 76.7685 112.119 76.8574 112.339C76.949 112.559 77.0798 112.727 77.2498 112.845C77.4225 112.963 77.6265 113.022 77.862 113.022ZM81.1111 113.681V109.419H81.9627V110.063H82.0294C82.1052 109.835 82.2387 109.659 82.4296 109.533C82.6232 109.408 82.8613 109.345 83.1438 109.345C83.2144 109.345 83.2838 109.349 83.3518 109.357C83.4198 109.365 83.4747 109.374 83.5166 109.384V110.169C83.4407 110.153 83.3649 110.142 83.289 110.134C83.2158 110.126 83.1386 110.122 83.0575 110.122C82.8403 110.122 82.6494 110.164 82.4846 110.247C82.3224 110.331 82.1942 110.449 82.1 110.601C82.0084 110.75 81.9627 110.928 81.9627 111.134V113.681H81.1111ZM86.0163 113.763C85.6003 113.763 85.2432 113.674 84.945 113.497C84.6467 113.316 84.4165 113.061 84.2543 112.731C84.0948 112.402 84.015 112.012 84.015 111.562V111.558C84.015 111.113 84.0948 110.725 84.2543 110.393C84.4165 110.06 84.6441 109.801 84.9371 109.616C85.2327 109.43 85.5781 109.337 85.9731 109.337C86.3707 109.337 86.7121 109.426 86.9973 109.604C87.285 109.782 87.5061 110.032 87.6604 110.353C87.8148 110.673 87.892 111.047 87.892 111.476V111.774H84.4466V111.166H87.4682L87.0601 111.731V111.389C87.0601 111.086 87.013 110.835 86.9188 110.636C86.8272 110.435 86.7004 110.284 86.5382 110.185C86.376 110.085 86.1889 110.036 85.977 110.036C85.7651 110.036 85.5754 110.088 85.408 110.193C85.2432 110.295 85.1124 110.446 85.0156 110.648C84.9214 110.849 84.8743 111.096 84.8743 111.389V111.731C84.8743 112.011 84.9214 112.25 85.0156 112.449C85.1098 112.648 85.2432 112.799 85.4159 112.904C85.5911 113.009 85.7978 113.061 86.0359 113.061C86.219 113.061 86.376 113.036 86.5068 112.986C86.6402 112.934 86.7488 112.87 86.8325 112.794C86.9188 112.718 86.9777 112.644 87.009 112.571L87.0247 112.539H87.8488L87.841 112.574C87.8043 112.716 87.7402 112.857 87.6487 112.998C87.5571 113.137 87.4355 113.264 87.2837 113.379C87.1346 113.494 86.9541 113.587 86.7422 113.657C86.5329 113.728 86.2909 113.763 86.0163 113.763ZM90.4544 113.763C90.1117 113.763 89.8135 113.714 89.5597 113.614C89.306 113.512 89.1045 113.372 88.9554 113.194C88.8063 113.014 88.7186 112.805 88.6925 112.567V112.559H89.5479V112.567C89.6029 112.726 89.7075 112.856 89.8619 112.955C90.0162 113.054 90.2203 113.104 90.474 113.104C90.6493 113.104 90.8023 113.079 90.9331 113.03C91.0666 112.98 91.1712 112.911 91.2471 112.822C91.3229 112.733 91.3609 112.631 91.3609 112.516V112.508C91.3609 112.374 91.3072 112.262 91.2 112.17C91.0927 112.079 90.9161 112.004 90.6702 111.947L89.9874 111.79C89.7206 111.729 89.4995 111.647 89.3243 111.542C89.149 111.438 89.0195 111.31 88.9358 111.158C88.8521 111.003 88.8102 110.823 88.8102 110.616V110.612C88.8102 110.364 88.8808 110.144 89.0221 109.953C89.1634 109.76 89.3583 109.609 89.6068 109.502C89.8579 109.392 90.1444 109.337 90.4662 109.337C90.7906 109.337 91.0731 109.388 91.3138 109.49C91.5571 109.59 91.7494 109.728 91.8906 109.906C92.0319 110.081 92.1156 110.285 92.1418 110.518V110.522H91.3256V110.514C91.2863 110.365 91.1921 110.241 91.043 110.142C90.8965 110.042 90.7029 109.992 90.4623 109.992C90.3079 109.992 90.1706 110.017 90.0502 110.067C89.9299 110.114 89.8344 110.181 89.7638 110.267C89.6957 110.351 89.6617 110.45 89.6617 110.565V110.573C89.6617 110.662 89.684 110.741 89.7284 110.809C89.7755 110.874 89.8488 110.933 89.9482 110.985C90.0476 111.035 90.1758 111.079 90.3328 111.119L91.0116 111.272C91.4197 111.368 91.7232 111.508 91.922 111.692C92.1235 111.875 92.2242 112.121 92.2242 112.429V112.437C92.2242 112.699 92.147 112.93 91.9927 113.132C91.8383 113.33 91.6277 113.486 91.3609 113.599C91.0967 113.709 90.7945 113.763 90.4544 113.763ZM94.7081 113.763C94.3654 113.763 94.0672 113.714 93.8134 113.614C93.5597 113.512 93.3582 113.372 93.2091 113.194C93.06 113.014 92.9724 112.805 92.9462 112.567V112.559H93.8017V112.567C93.8566 112.726 93.9612 112.856 94.1156 112.955C94.2699 113.054 94.474 113.104 94.7278 113.104C94.903 113.104 95.0561 113.079 95.1869 113.03C95.3203 112.98 95.4249 112.911 95.5008 112.822C95.5767 112.733 95.6146 112.631 95.6146 112.516V112.508C95.6146 112.374 95.561 112.262 95.4537 112.17C95.3465 112.079 95.1699 112.004 94.924 111.947L94.2412 111.79C93.9743 111.729 93.7533 111.647 93.578 111.542C93.4027 111.438 93.2732 111.31 93.1895 111.158C93.1058 111.003 93.0639 110.823 93.0639 110.616V110.612C93.0639 110.364 93.1346 110.144 93.2758 109.953C93.4171 109.76 93.612 109.609 93.8605 109.502C94.1117 109.392 94.3981 109.337 94.7199 109.337C95.0443 109.337 95.3268 109.388 95.5675 109.49C95.8108 109.59 96.0031 109.728 96.1444 109.906C96.2856 110.081 96.3693 110.285 96.3955 110.518V110.522H95.5793V110.514C95.54 110.365 95.4459 110.241 95.2967 110.142C95.1502 110.042 94.9567 109.992 94.716 109.992C94.5616 109.992 94.4243 110.017 94.3039 110.067C94.1836 110.114 94.0881 110.181 94.0175 110.267C93.9495 110.351 93.9155 110.45 93.9155 110.565V110.573C93.9155 110.662 93.9377 110.741 93.9822 110.809C94.0293 110.874 94.1025 110.933 94.2019 110.985C94.3013 111.035 94.4295 111.079 94.5865 111.119L95.2654 111.272C95.6735 111.368 95.9769 111.508 96.1757 111.692C96.3772 111.875 96.4779 112.121 96.4779 112.429V112.437C96.4779 112.699 96.4007 112.93 96.2464 113.132C96.092 113.33 95.8814 113.486 95.6146 113.599C95.3504 113.709 95.0482 113.763 94.7081 113.763Z" fill="#6A7385"/>
<rect x="40.1549" y="75.6509" width="262.081" height="23.6632" rx="4.24151" fill="white"/>
<rect x="40.1549" y="75.6509" width="262.081" height="23.6632" rx="4.24151" stroke="#D2D2D2" stroke-width="0.446475"/>
<g filter="url(#filter1_d_1_587)">
<rect x="39.9316" y="264.733" width="262.527" height="26.7885" rx="13.3943" fill="url(#paint0_linear_1_587)"/>
<rect x="40.1549" y="264.957" width="262.081" height="26.342" rx="13.171" stroke="url(#paint1_linear_1_587)" stroke-width="0.446475"/>
<path d="M158.613 278.851V277.868H160.674C161.183 277.868 161.577 277.737 161.856 277.475C162.139 277.21 162.28 276.844 162.28 276.377V276.366C162.28 275.892 162.139 275.524 161.856 275.262C161.577 275.001 161.183 274.87 160.674 274.87H158.613V273.881H160.967C161.462 273.881 161.897 273.986 162.27 274.195C162.647 274.401 162.941 274.69 163.154 275.063C163.367 275.433 163.473 275.864 163.473 276.356V276.366C163.473 276.858 163.367 277.292 163.154 277.669C162.941 278.042 162.647 278.333 162.27 278.543C161.897 278.749 161.462 278.851 160.967 278.851H158.613ZM158.027 281.431V273.881H159.199V281.431H158.027ZM166.204 281.525C165.845 281.525 165.522 281.457 165.236 281.321C164.954 281.181 164.731 280.984 164.567 280.73C164.403 280.475 164.321 280.177 164.321 279.835V279.825C164.321 279.483 164.403 279.191 164.567 278.951C164.734 278.71 164.975 278.522 165.289 278.386C165.606 278.246 165.99 278.163 166.44 278.135L168.538 278.009V278.81L166.597 278.935C166.206 278.96 165.918 279.043 165.734 279.186C165.549 279.326 165.456 279.523 165.456 279.777V279.788C165.456 280.046 165.556 280.25 165.754 280.4C165.953 280.547 166.204 280.62 166.508 280.62C166.79 280.62 167.042 280.564 167.261 280.452C167.485 280.337 167.659 280.184 167.784 279.992C167.91 279.797 167.973 279.577 167.973 279.333V277.543C167.973 277.229 167.875 276.991 167.68 276.827C167.488 276.659 167.202 276.575 166.822 276.575C166.504 276.575 166.245 276.631 166.042 276.743C165.843 276.854 165.711 277.011 165.645 277.214L165.634 277.229H164.541L164.546 277.193C164.591 276.879 164.715 276.607 164.917 276.377C165.123 276.143 165.392 275.962 165.723 275.832C166.058 275.703 166.44 275.639 166.869 275.639C167.347 275.639 167.751 275.716 168.083 275.869C168.418 276.019 168.67 276.237 168.841 276.523C169.016 276.806 169.103 277.146 169.103 277.543V281.431H167.973V280.625H167.889C167.778 280.817 167.638 280.981 167.471 281.117C167.303 281.249 167.113 281.351 166.9 281.42C166.687 281.49 166.456 281.525 166.204 281.525ZM171.07 283.43C171.001 283.43 170.926 283.426 170.845 283.419C170.765 283.416 170.688 283.41 170.615 283.403V282.509C170.671 282.516 170.732 282.521 170.798 282.524C170.868 282.528 170.934 282.53 170.997 282.53C171.262 282.53 171.477 282.467 171.641 282.341C171.805 282.219 171.928 282.015 172.012 281.729L172.096 281.436L170.034 275.749H171.264L172.87 280.871L172.514 280.285H172.949L172.598 280.871L174.199 275.749H175.397L173.283 281.645C173.123 282.099 172.945 282.455 172.75 282.713C172.554 282.974 172.323 283.159 172.054 283.267C171.785 283.375 171.457 283.43 171.07 283.43Z" fill="white"/>
</g>
<path d="M40.1549 126.326C40.1549 125.072 40.1551 124.145 40.215 123.412C40.2747 122.681 40.3926 122.162 40.6172 121.721C41.0238 120.923 41.6727 120.274 42.4708 119.868C42.9116 119.643 43.4303 119.525 44.161 119.466C44.8943 119.406 45.8213 119.406 47.0752 119.406H295.315C296.569 119.406 297.496 119.406 298.23 119.466C298.96 119.525 299.479 119.643 299.92 119.868C300.718 120.274 301.367 120.923 301.774 121.721C301.998 122.162 302.116 122.681 302.176 123.412C302.236 124.145 302.236 125.072 302.236 126.326V143.069H40.1549V126.326Z" fill="white"/>
<path d="M40.1549 126.326C40.1549 125.072 40.1551 124.145 40.215 123.412C40.2747 122.681 40.3926 122.162 40.6172 121.721C41.0238 120.923 41.6727 120.274 42.4708 119.868C42.9116 119.643 43.4303 119.525 44.161 119.466C44.8943 119.406 45.8213 119.406 47.0752 119.406H295.315C296.569 119.406 297.496 119.406 298.23 119.466C298.96 119.525 299.479 119.643 299.92 119.868C300.718 120.274 301.367 120.923 301.774 121.721C301.998 122.162 302.116 122.681 302.176 123.412C302.236 124.145 302.236 125.072 302.236 126.326V143.069H40.1549V126.326Z" stroke="#D2D2D2" stroke-width="0.446475"/>
<path d="M50.8181 134.921C50.2978 134.921 49.8501 134.823 49.4752 134.628C49.1031 134.434 48.8168 134.163 48.6162 133.817C48.4157 133.469 48.3154 133.066 48.3154 132.61V128.481H49.1002V132.557C49.1002 132.88 49.1671 133.165 49.3008 133.412C49.4374 133.656 49.6336 133.848 49.8894 133.987C50.1452 134.127 50.4548 134.197 50.8181 134.197C51.1814 134.197 51.4895 134.127 51.7424 133.987C51.9982 133.848 52.193 133.656 52.3267 133.412C52.4604 133.165 52.5273 132.88 52.5273 132.557V128.481H53.3121V132.61C53.3121 133.066 53.2118 133.469 53.0112 133.817C52.8136 134.163 52.5287 134.434 52.1566 134.628C51.7846 134.823 51.3384 134.921 50.8181 134.921ZM54.812 134.772V130.072H55.5706V130.778H55.6404C55.7595 130.528 55.931 130.335 56.1549 130.199C56.3787 130.059 56.6635 129.989 57.0094 129.989C57.5385 129.989 57.944 130.14 58.2259 130.443C58.5108 130.742 58.6532 131.171 58.6532 131.729V134.772H57.8945V131.912C57.8945 131.488 57.8044 131.174 57.6242 130.97C57.4469 130.764 57.1708 130.661 56.7958 130.661C56.5458 130.661 56.3293 130.714 56.1461 130.822C55.963 130.93 55.8206 131.082 55.7189 131.28C55.62 131.477 55.5706 131.714 55.5706 131.991V134.772H54.812ZM60.0441 134.772V130.072H60.8027V134.772H60.0441ZM60.4278 129.165C60.2853 129.165 60.1618 129.114 60.0572 129.013C59.9554 128.908 59.9046 128.784 59.9046 128.642C59.9046 128.497 59.9554 128.373 60.0572 128.271C60.1618 128.17 60.2853 128.119 60.4278 128.119C60.5731 128.119 60.6966 128.17 60.7984 128.271C60.9001 128.373 60.951 128.497 60.951 128.642C60.951 128.784 60.9001 128.908 60.7984 129.013C60.6966 129.114 60.5731 129.165 60.4278 129.165ZM63.9028 134.807C63.4203 134.807 63.07 134.71 62.852 134.515C62.6369 134.32 62.5293 133.999 62.5293 133.551V130.7H61.7881V130.072H62.5293V128.856H63.3142V130.072H64.3432V130.7H63.3142V133.36C63.3142 133.636 63.3665 133.835 63.4711 133.957C63.5758 134.076 63.7502 134.136 63.9943 134.136C64.0612 134.136 64.1179 134.134 64.1644 134.131C64.2138 134.128 64.2734 134.124 64.3432 134.118V134.764C64.2705 134.775 64.1978 134.785 64.1251 134.794C64.0525 134.803 63.9784 134.807 63.9028 134.807ZM67.3342 134.855C66.8865 134.855 66.5014 134.756 66.1788 134.559C65.859 134.361 65.6119 134.082 65.4375 133.721C65.266 133.358 65.1803 132.931 65.1803 132.44V132.435C65.1803 131.95 65.266 131.524 65.4375 131.158C65.6119 130.791 65.8576 130.505 66.1744 130.299C66.4912 130.092 66.8618 129.989 67.2862 129.989C67.7135 129.989 68.0798 130.088 68.385 130.286C68.6931 130.483 68.9285 130.76 69.0913 131.114C69.257 131.466 69.3398 131.876 69.3398 132.344V132.64H65.5727V132.034H68.9518L68.5768 132.588V132.287C68.5768 131.918 68.5216 131.614 68.4111 131.376C68.3007 131.137 68.1481 130.96 67.9533 130.844C67.7586 130.725 67.5348 130.665 67.2819 130.665C67.029 130.665 66.8023 130.728 66.6017 130.853C66.404 130.975 66.2471 131.156 66.1308 131.398C66.0145 131.639 65.9564 131.935 65.9564 132.287V132.588C65.9564 132.922 66.0131 133.208 66.1264 133.447C66.2398 133.682 66.4011 133.864 66.6104 133.992C66.8197 134.117 67.0668 134.179 67.3516 134.179C67.5638 134.179 67.7484 134.15 67.9054 134.092C68.0623 134.034 68.1917 133.96 68.2934 133.87C68.3951 133.78 68.4664 133.688 68.5071 133.595L68.5245 133.556H69.2832L69.2744 133.591C69.2337 133.751 69.1611 133.906 69.0564 134.057C68.9547 134.205 68.8224 134.341 68.6597 134.463C68.4969 134.582 68.3036 134.678 68.0798 134.75C67.8589 134.82 67.6103 134.855 67.3342 134.855ZM72.2524 134.855C71.8571 134.855 71.5112 134.755 71.2147 134.554C70.9182 134.354 70.6886 134.072 70.5258 133.708C70.363 133.342 70.2816 132.915 70.2816 132.427V132.418C70.2816 131.927 70.363 131.499 70.5258 131.136C70.6886 130.773 70.9167 130.491 71.2103 130.29C71.5068 130.09 71.8542 129.989 72.2524 129.989C72.4675 129.989 72.6695 130.024 72.8584 130.094C73.0503 130.161 73.2203 130.255 73.3686 130.377C73.5168 130.499 73.6331 130.645 73.7174 130.813H73.7871V128.206H74.5458V134.772H73.7871V134.022H73.7174C73.6215 134.197 73.5008 134.346 73.3555 134.471C73.2102 134.594 73.0445 134.688 72.8584 134.755C72.6724 134.822 72.4704 134.855 72.2524 134.855ZM72.4268 134.184C72.7117 134.184 72.9573 134.112 73.1637 133.97C73.37 133.828 73.5284 133.626 73.6389 133.364C73.7494 133.099 73.8046 132.787 73.8046 132.427V132.418C73.8046 132.054 73.7494 131.742 73.6389 131.48C73.5284 131.219 73.37 131.017 73.1637 130.874C72.9573 130.732 72.7117 130.661 72.4268 130.661C72.1419 130.661 71.8963 130.732 71.6899 130.874C71.4865 131.014 71.3295 131.214 71.219 131.476C71.1115 131.738 71.0577 132.052 71.0577 132.418V132.427C71.0577 132.79 71.1115 133.104 71.219 133.368C71.3295 133.63 71.4865 133.832 71.6899 133.974C71.8963 134.114 72.1419 134.184 72.4268 134.184ZM80.6718 134.921C80.2125 134.921 79.8114 134.846 79.4684 134.698C79.1283 134.547 78.858 134.341 78.6574 134.079C78.4597 133.815 78.3449 133.512 78.3129 133.172L78.3086 133.124H79.0934L79.0978 133.172C79.1181 133.381 79.198 133.563 79.3376 133.717C79.48 133.868 79.6689 133.986 79.9044 134.07C80.1427 134.155 80.4131 134.197 80.7154 134.197C81.0002 134.197 81.2531 134.152 81.474 134.062C81.6978 133.969 81.8737 133.841 82.0016 133.678C82.1295 133.515 82.1934 133.328 82.1934 133.115V133.111C82.1934 132.849 82.0975 132.63 81.9057 132.453C81.7138 132.272 81.4014 132.134 80.9682 132.038L80.2706 131.886C79.6399 131.746 79.1806 131.531 78.8928 131.241C78.608 130.947 78.4655 130.572 78.4655 130.116V130.111C78.4685 129.763 78.5629 129.454 78.749 129.187C78.9379 128.92 79.198 128.71 79.5294 128.559C79.8637 128.408 80.2474 128.332 80.6805 128.332C81.0991 128.332 81.4697 128.408 81.7923 128.559C82.115 128.707 82.3707 128.908 82.5597 129.161C82.7515 129.414 82.8576 129.697 82.878 130.011L82.8823 130.072H82.0975L82.0888 130.015C82.0597 129.829 81.9842 129.665 81.8621 129.523C81.74 129.377 81.5772 129.263 81.3737 129.178C81.1703 129.094 80.9319 129.053 80.6587 129.056C80.3971 129.056 80.1616 129.097 79.9523 129.178C79.7431 129.26 79.5759 129.377 79.4509 129.531C79.3288 129.683 79.2678 129.869 79.2678 130.09V130.094C79.2678 130.344 79.3608 130.555 79.5469 130.726C79.7329 130.898 80.0395 131.03 80.4668 131.123L81.1645 131.28C81.6034 131.376 81.9565 131.501 82.224 131.655C82.4914 131.809 82.6861 131.998 82.8082 132.222C82.9332 132.443 82.9957 132.704 82.9957 133.006V133.011C82.9957 133.403 82.8998 133.742 82.7079 134.027C82.5161 134.312 82.2458 134.532 81.897 134.689C81.5481 134.843 81.1397 134.921 80.6718 134.921ZM85.8777 134.807C85.3952 134.807 85.045 134.71 84.8269 134.515C84.6118 134.32 84.5043 133.999 84.5043 133.551V130.7H83.7631V130.072H84.5043V128.856H85.2891V130.072H86.3181V130.7H85.2891V133.36C85.2891 133.636 85.3414 133.835 85.4461 133.957C85.5507 134.076 85.7251 134.136 85.9693 134.136C86.0361 134.136 86.0928 134.134 86.1393 134.131C86.1888 134.128 86.2483 134.124 86.3181 134.118V134.764C86.2454 134.775 86.1728 134.785 86.1001 134.794C86.0274 134.803 85.9533 134.807 85.8777 134.807ZM88.7423 134.855C88.4458 134.855 88.1784 134.798 87.9401 134.685C87.7046 134.572 87.5171 134.41 87.3776 134.201C87.241 133.992 87.1727 133.745 87.1727 133.46V133.451C87.1727 133.172 87.2395 132.934 87.3732 132.736C87.507 132.536 87.7017 132.379 87.9575 132.265C88.2133 132.152 88.5229 132.085 88.8862 132.065L90.6128 131.96V132.566L88.9778 132.671C88.6202 132.691 88.3586 132.765 88.1929 132.893C88.0302 133.021 87.9488 133.201 87.9488 133.434V133.442C87.9488 133.681 88.0389 133.867 88.2191 134.001C88.3993 134.131 88.6261 134.197 88.8993 134.197C89.158 134.197 89.3876 134.146 89.5882 134.044C89.7887 133.939 89.9457 133.799 90.0591 133.621C90.1753 133.444 90.2335 133.243 90.2335 133.02V131.555C90.2335 131.264 90.1448 131.043 89.9675 130.892C89.7931 130.738 89.53 130.661 89.1783 130.661C88.8964 130.661 88.6653 130.712 88.4851 130.813C88.3049 130.912 88.1842 131.053 88.1232 131.236L88.1188 131.249H87.3602L87.3645 131.223C87.4052 130.976 87.507 130.761 87.6697 130.578C87.8354 130.392 88.0491 130.248 88.3107 130.146C88.5723 130.042 88.8702 129.989 89.2045 129.989C89.5882 129.989 89.9123 130.052 90.1768 130.177C90.4442 130.302 90.6462 130.482 90.7829 130.717C90.9224 130.95 90.9921 131.229 90.9921 131.555V134.772H90.2335V134.079H90.1637C90.0649 134.245 89.9443 134.386 89.8018 134.502C89.6623 134.618 89.5039 134.707 89.3266 134.768C89.1493 134.826 88.9545 134.855 88.7423 134.855ZM94.0486 134.807C93.5661 134.807 93.2158 134.71 92.9978 134.515C92.7827 134.32 92.6751 133.999 92.6751 133.551V130.7H91.9339V130.072H92.6751V128.856H93.46V130.072H94.4889V130.7H93.46V133.36C93.46 133.636 93.5123 133.835 93.6169 133.957C93.7216 134.076 93.896 134.136 94.1401 134.136C94.207 134.136 94.2637 134.134 94.3102 134.131C94.3596 134.128 94.4192 134.124 94.4889 134.118V134.764C94.4163 134.775 94.3436 134.785 94.2709 134.794C94.1983 134.803 94.1241 134.807 94.0486 134.807ZM97.48 134.855C97.0323 134.855 96.6472 134.756 96.3246 134.559C96.0048 134.361 95.7577 134.082 95.5833 133.721C95.4118 133.358 95.3261 132.931 95.3261 132.44V132.435C95.3261 131.95 95.4118 131.524 95.5833 131.158C95.7577 130.791 96.0034 130.505 96.3202 130.299C96.637 130.092 97.0076 129.989 97.432 129.989C97.8593 129.989 98.2256 130.088 98.5308 130.286C98.8389 130.483 99.0743 130.76 99.2371 131.114C99.4028 131.466 99.4856 131.876 99.4856 132.344V132.64H95.7185V132.034H99.0976L98.7226 132.588V132.287C98.7226 131.918 98.6674 131.614 98.5569 131.376C98.4465 131.137 98.2939 130.96 98.0991 130.844C97.9044 130.725 97.6805 130.665 97.4277 130.665C97.1748 130.665 96.948 130.728 96.7475 130.853C96.5498 130.975 96.3929 131.156 96.2766 131.398C96.1603 131.639 96.1022 131.935 96.1022 132.287V132.588C96.1022 132.922 96.1589 133.208 96.2722 133.447C96.3856 133.682 96.5469 133.864 96.7562 133.992C96.9655 134.117 97.2126 134.179 97.4974 134.179C97.7096 134.179 97.8942 134.15 98.0512 134.092C98.2081 134.034 98.3375 133.96 98.4392 133.87C98.5409 133.78 98.6122 133.688 98.6528 133.595L98.6703 133.556H99.4289L99.4202 133.591C99.3795 133.751 99.3069 133.906 99.2022 134.057C99.1005 134.205 98.9682 134.341 98.8055 134.463C98.6427 134.582 98.4494 134.678 98.2256 134.75C98.0046 134.82 97.7561 134.855 97.48 134.855ZM102.276 134.855C101.927 134.855 101.619 134.803 101.352 134.698C101.084 134.591 100.869 134.441 100.706 134.249C100.547 134.057 100.452 133.832 100.423 133.573H101.199C101.263 133.768 101.388 133.925 101.574 134.044C101.76 134.163 102.003 134.223 102.302 134.223C102.514 134.223 102.7 134.192 102.86 134.131C103.023 134.067 103.151 133.982 103.244 133.874C103.337 133.764 103.384 133.637 103.384 133.495V133.486C103.384 133.326 103.32 133.191 103.192 133.081C103.064 132.967 102.855 132.876 102.564 132.806L101.836 132.631C101.542 132.562 101.301 132.472 101.112 132.361C100.923 132.248 100.783 132.11 100.693 131.947C100.603 131.781 100.558 131.586 100.558 131.363V131.358C100.558 131.097 100.634 130.863 100.785 130.656C100.939 130.45 101.148 130.287 101.413 130.168C101.677 130.049 101.975 129.989 102.307 129.989C102.635 129.989 102.926 130.042 103.179 130.146C103.434 130.248 103.639 130.393 103.793 130.582C103.95 130.771 104.046 130.994 104.081 131.249H103.336C103.286 131.063 103.173 130.912 102.996 130.796C102.818 130.68 102.587 130.621 102.302 130.621C102.116 130.621 101.951 130.652 101.805 130.713C101.66 130.771 101.545 130.853 101.461 130.957C101.376 131.062 101.334 131.184 101.334 131.323V131.332C101.334 131.437 101.362 131.53 101.417 131.611C101.472 131.693 101.558 131.764 101.674 131.825C101.791 131.886 101.94 131.94 102.123 131.986L102.847 132.161C103.289 132.268 103.618 132.422 103.833 132.623C104.051 132.823 104.16 133.092 104.16 133.429V133.438C104.16 133.717 104.077 133.964 103.911 134.179C103.745 134.391 103.52 134.557 103.235 134.676C102.953 134.796 102.634 134.855 102.276 134.855Z" fill="black"/>
<path d="M287.724 129.898C288.428 130.871 289.252 131.745 290.175 132.495C290.309 132.604 290.497 132.604 290.63 132.495C291.553 131.745 292.377 130.871 293.081 129.898" stroke="#111111" stroke-width="0.89295" stroke-linecap="round" stroke-linejoin="round"/>
<rect x="40.1549" y="143.069" width="262.081" height="23.6632" fill="white"/>
<rect x="40.1549" y="143.069" width="262.081" height="23.6632" stroke="#D2D2D2" stroke-width="0.446475"/>
<path d="M47.8227 158.436L50.1423 152.144H50.744V153.16H50.4954L48.6468 158.436H47.8227ZM48.8735 156.635L49.1177 155.968H51.9604L52.2046 156.635H48.8735ZM52.4139 158.436L50.5652 153.16V152.144H50.9184L53.238 158.436H52.4139ZM55.7189 158.518C55.3235 158.518 54.9776 158.418 54.6811 158.218C54.3847 158.017 54.155 157.735 53.9923 157.372C53.8295 157.005 53.7481 156.578 53.7481 156.09V156.081C53.7481 155.59 53.8295 155.163 53.9923 154.799C54.155 154.436 54.3832 154.154 54.6768 153.953C54.9733 153.753 55.3206 153.652 55.7189 153.652C55.934 153.652 56.136 153.687 56.3249 153.757C56.5168 153.824 56.6868 153.918 56.835 154.041C56.9833 154.163 57.0996 154.308 57.1839 154.477H57.2536V151.869H58.0123V158.436H57.2536V157.686H57.1839C57.0879 157.86 56.9673 158.01 56.822 158.135C56.6766 158.257 56.5109 158.351 56.3249 158.418C56.1389 158.485 55.9369 158.518 55.7189 158.518ZM55.8933 157.847C56.1781 157.847 56.4237 157.776 56.6301 157.633C56.8365 157.491 56.9949 157.289 57.1054 157.027C57.2158 156.763 57.2711 156.45 57.2711 156.09V156.081C57.2711 155.718 57.2158 155.405 57.1054 155.144C56.9949 154.882 56.8365 154.68 56.6301 154.538C56.4237 154.395 56.1781 154.324 55.8933 154.324C55.6084 154.324 55.3628 154.395 55.1564 154.538C54.9529 154.677 54.796 154.878 54.6855 155.139C54.578 155.401 54.5242 155.715 54.5242 156.081V156.09C54.5242 156.453 54.578 156.767 54.6855 157.032C54.796 157.293 54.9529 157.495 55.1564 157.638C55.3628 157.777 55.6084 157.847 55.8933 157.847ZM61.2039 158.518C60.8086 158.518 60.4627 158.418 60.1662 158.218C59.8697 158.017 59.64 157.735 59.4773 157.372C59.3145 157.005 59.2331 156.578 59.2331 156.09V156.081C59.2331 155.59 59.3145 155.163 59.4773 154.799C59.64 154.436 59.8682 154.154 60.1618 153.953C60.4583 153.753 60.8056 153.652 61.2039 153.652C61.419 153.652 61.621 153.687 61.8099 153.757C62.0018 153.824 62.1718 153.918 62.3201 154.041C62.4683 154.163 62.5846 154.308 62.6689 154.477H62.7386V151.869H63.4973V158.436H62.7386V157.686H62.6689C62.5729 157.86 62.4523 158.01 62.307 158.135C62.1616 158.257 61.996 158.351 61.8099 158.418C61.6239 158.485 61.4219 158.518 61.2039 158.518ZM61.3783 157.847C61.6631 157.847 61.9088 157.776 62.1151 157.633C62.3215 157.491 62.4799 157.289 62.5904 157.027C62.7008 156.763 62.7561 156.45 62.7561 156.09V156.081C62.7561 155.718 62.7008 155.405 62.5904 155.144C62.4799 154.882 62.3215 154.68 62.1151 154.538C61.9088 154.395 61.6631 154.324 61.3783 154.324C61.0934 154.324 60.8478 154.395 60.6414 154.538C60.4379 154.677 60.281 154.878 60.1705 155.139C60.063 155.401 60.0092 155.715 60.0092 156.081V156.09C60.0092 156.453 60.063 156.767 60.1705 157.032C60.281 157.293 60.4379 157.495 60.6414 157.638C60.8478 157.777 61.0934 157.847 61.3783 157.847ZM64.9536 158.436V153.735H65.7122V154.433H65.782C65.8721 154.186 66.0247 153.994 66.2398 153.857C66.4549 153.721 66.7209 153.652 67.0377 153.652C67.1104 153.652 67.1816 153.657 67.2513 153.666C67.324 153.671 67.3792 153.677 67.417 153.683V154.42C67.3385 154.405 67.2615 154.395 67.1859 154.389C67.1133 154.381 67.0348 154.376 66.9505 154.376C66.7092 154.376 66.4956 154.424 66.3096 154.52C66.1235 154.616 65.9767 154.75 65.8692 154.921C65.7645 155.093 65.7122 155.293 65.7122 155.523V158.436H64.9536ZM70.1421 158.518C69.6945 158.518 69.3093 158.42 68.9867 158.222C68.6669 158.024 68.4199 157.745 68.2454 157.385C68.074 157.021 67.9882 156.594 67.9882 156.103V156.098C67.9882 155.613 68.074 155.187 68.2454 154.821C68.4199 154.455 68.6655 154.168 68.9823 153.962C69.2991 153.756 69.6698 153.652 70.0941 153.652C70.5214 153.652 70.8877 153.751 71.1929 153.949C71.501 154.147 71.7364 154.423 71.8992 154.777C72.0649 155.129 72.1477 155.539 72.1477 156.007V156.303H68.3806V155.697H71.7597L71.3847 156.251V155.95C71.3847 155.581 71.3295 155.277 71.219 155.039C71.1086 154.801 70.956 154.623 70.7612 154.507C70.5665 154.388 70.3427 154.328 70.0898 154.328C69.8369 154.328 69.6102 154.391 69.4096 154.516C69.2119 154.638 69.055 154.82 68.9387 155.061C68.8224 155.302 68.7643 155.599 68.7643 155.95V156.251C68.7643 156.585 68.821 156.872 68.9343 157.11C69.0477 157.345 69.209 157.527 69.4183 157.655C69.6276 157.78 69.8747 157.843 70.1595 157.843C70.3717 157.843 70.5563 157.813 70.7133 157.755C70.8702 157.697 70.9996 157.623 71.1013 157.533C71.2031 157.443 71.2743 157.351 71.315 157.258L71.3324 157.219H72.0911L72.0823 157.254C72.0417 157.414 71.969 157.569 71.8643 157.72C71.7626 157.869 71.6303 158.004 71.4676 158.126C71.3048 158.245 71.1115 158.341 70.8877 158.414C70.6668 158.483 70.4182 158.518 70.1421 158.518ZM74.9382 158.518C74.5894 158.518 74.2813 158.466 74.0139 158.361C73.7465 158.254 73.5314 158.104 73.3686 157.912C73.2087 157.72 73.1142 157.495 73.0852 157.236H73.8613C73.9252 157.431 74.0502 157.588 74.2362 157.707C74.4223 157.827 74.665 157.886 74.9644 157.886C75.1766 157.886 75.3626 157.856 75.5225 157.795C75.6852 157.731 75.8131 157.645 75.9062 157.537C75.9992 157.427 76.0457 157.3 76.0457 157.158V157.149C76.0457 156.989 75.9817 156.854 75.8538 156.744C75.7259 156.63 75.5167 156.539 75.226 156.469L74.4978 156.295C74.2043 156.225 73.963 156.135 73.7741 156.024C73.5851 155.911 73.4456 155.773 73.3555 155.61C73.2654 155.444 73.2203 155.25 73.2203 155.026V155.022C73.2203 154.76 73.2959 154.526 73.4471 154.32C73.6011 154.113 73.8104 153.95 74.0749 153.831C74.3394 153.712 74.6374 153.652 74.9687 153.652C75.2972 153.652 75.5879 153.705 75.8408 153.809C76.0966 153.911 76.3015 154.057 76.4555 154.245C76.6125 154.434 76.7084 154.657 76.7433 154.913H75.9977C75.9483 154.727 75.8349 154.575 75.6576 154.459C75.4803 154.343 75.2492 154.285 74.9644 154.285C74.7783 154.285 74.6127 154.315 74.4673 154.376C74.322 154.434 74.2072 154.516 74.1229 154.62C74.0386 154.725 73.9964 154.847 73.9964 154.987V154.995C73.9964 155.1 74.024 155.193 74.0793 155.274C74.1345 155.356 74.2203 155.427 74.3365 155.488C74.4528 155.549 74.6025 155.603 74.7856 155.649L75.5094 155.824C75.9512 155.931 76.2797 156.085 76.4948 156.286C76.7128 156.487 76.8218 156.755 76.8218 157.093V157.101C76.8218 157.38 76.7389 157.627 76.5733 157.843C76.4076 158.055 76.1823 158.22 75.8974 158.34C75.6155 158.459 75.2957 158.518 74.9382 158.518ZM79.5251 158.518C79.1762 158.518 78.8681 158.466 78.6007 158.361C78.3333 158.254 78.1182 158.104 77.9554 157.912C77.7955 157.72 77.7011 157.495 77.672 157.236H78.4481C78.5121 157.431 78.637 157.588 78.8231 157.707C79.0091 157.827 79.2518 157.886 79.5512 157.886C79.7634 157.886 79.9494 157.856 80.1093 157.795C80.2721 157.731 80.4 157.645 80.493 157.537C80.586 157.427 80.6325 157.3 80.6325 157.158V157.149C80.6325 156.989 80.5686 156.854 80.4407 156.744C80.3128 156.63 80.1035 156.539 79.8128 156.469L79.0847 156.295C78.7911 156.225 78.5498 156.135 78.3609 156.024C78.172 155.911 78.0324 155.773 77.9423 155.61C77.8522 155.444 77.8072 155.25 77.8072 155.026V155.022C77.8072 154.76 77.8827 154.526 78.0339 154.32C78.188 154.113 78.3972 153.95 78.6617 153.831C78.9263 153.712 79.2242 153.652 79.5556 153.652C79.884 153.652 80.1747 153.705 80.4276 153.809C80.6834 153.911 80.8883 154.057 81.0424 154.245C81.1993 154.434 81.2953 154.657 81.3301 154.913H80.5846C80.5351 154.727 80.4218 154.575 80.2445 154.459C80.0672 154.343 79.8361 154.285 79.5512 154.285C79.3652 154.285 79.1995 154.315 79.0542 154.376C78.9088 154.434 78.794 154.516 78.7097 154.62C78.6254 154.725 78.5833 154.847 78.5833 154.987V154.995C78.5833 155.1 78.6109 155.193 78.6661 155.274C78.7213 155.356 78.8071 155.427 78.9234 155.488C79.0396 155.549 79.1893 155.603 79.3724 155.649L80.0962 155.824C80.538 155.931 80.8665 156.085 81.0816 156.286C81.2996 156.487 81.4086 156.755 81.4086 157.093V157.101C81.4086 157.38 81.3258 157.627 81.1601 157.843C80.9944 158.055 80.7691 158.22 80.4843 158.34C80.2023 158.459 79.8826 158.518 79.5251 158.518ZM85.1409 158.436V151.869H85.8995V158.436H85.1409ZM87.3732 158.436V153.735H88.1319V158.436H87.3732ZM87.7569 152.828C87.6145 152.828 87.491 152.778 87.3863 152.676C87.2846 152.571 87.2337 152.448 87.2337 152.305C87.2337 152.16 87.2846 152.036 87.3863 151.935C87.491 151.833 87.6145 151.782 87.7569 151.782C87.9023 151.782 88.0258 151.833 88.1275 151.935C88.2293 152.036 88.2802 152.16 88.2802 152.305C88.2802 152.448 88.2293 152.571 88.1275 152.676C88.0258 152.778 87.9023 152.828 87.7569 152.828ZM89.562 158.436V153.735H90.3207V154.442H90.3904C90.5096 154.192 90.6811 153.998 90.9049 153.862C91.1288 153.722 91.4136 153.652 91.7595 153.652C92.2885 153.652 92.694 153.804 92.976 154.106C93.2608 154.405 93.4033 154.834 93.4033 155.392V158.436H92.6446V155.575C92.6446 155.151 92.5545 154.837 92.3743 154.633C92.197 154.427 91.9208 154.324 91.5459 154.324C91.2959 154.324 91.0793 154.378 90.8962 154.485C90.7131 154.593 90.5707 154.745 90.4689 154.943C90.3701 155.141 90.3207 155.378 90.3207 155.654V158.436H89.562ZM96.6952 158.518C96.2475 158.518 95.8624 158.42 95.5397 158.222C95.22 158.024 94.9729 157.745 94.7985 157.385C94.627 157.021 94.5413 156.594 94.5413 156.103V156.098C94.5413 155.613 94.627 155.187 94.7985 154.821C94.9729 154.455 95.2185 154.168 95.5354 153.962C95.8522 153.756 96.2228 153.652 96.6472 153.652C97.0745 153.652 97.4407 153.751 97.7459 153.949C98.0541 154.147 98.2895 154.423 98.4523 154.777C98.618 155.129 98.7008 155.539 98.7008 156.007V156.303H94.9337V155.697H98.3128L97.9378 156.251V155.95C97.9378 155.581 97.8826 155.277 97.7721 155.039C97.6617 154.801 97.509 154.623 97.3143 154.507C97.1195 154.388 96.8957 154.328 96.6428 154.328C96.39 154.328 96.1632 154.391 95.9627 154.516C95.765 154.638 95.608 154.82 95.4918 155.061C95.3755 155.302 95.3174 155.599 95.3174 155.95V156.251C95.3174 156.585 95.374 156.872 95.4874 157.11C95.6008 157.345 95.7621 157.527 95.9714 157.655C96.1807 157.78 96.4277 157.843 96.7126 157.843C96.9248 157.843 97.1094 157.813 97.2663 157.755C97.4233 157.697 97.5526 157.623 97.6544 157.533C97.7561 157.443 97.8273 157.351 97.868 157.258L97.8855 157.219H98.6441L98.6354 157.254C98.5947 157.414 98.522 157.569 98.4174 157.72C98.3157 157.869 98.1834 158.004 98.0206 158.126C97.8579 158.245 97.6646 158.341 97.4407 158.414C97.2198 158.483 96.9713 158.518 96.6952 158.518ZM103.924 158.436V153.016H103.854L102.254 154.176V153.347L103.929 152.144H104.709V158.436H103.924Z" fill="#919191"/>
<rect x="40.1551" y="166.286" width="262.081" height="23.6632" fill="white"/>
<rect x="40.1551" y="166.286" width="262.081" height="23.6632" stroke="#D2D2D2" stroke-width="0.446475"/>
<path d="M47.8229 181.652L50.1425 175.361H50.7442V176.376H50.4957L48.647 181.652H47.8229ZM48.8737 179.851L49.1179 179.184H51.9607L52.2049 179.851H48.8737ZM52.4141 181.652L50.5655 176.376V175.361H50.9186L53.2382 181.652H52.4141ZM55.7191 181.735C55.3238 181.735 54.9779 181.635 54.6814 181.434C54.3849 181.234 54.1553 180.952 53.9925 180.588C53.8297 180.222 53.7483 179.795 53.7483 179.306V179.298C53.7483 178.806 53.8297 178.379 53.9925 178.016C54.1553 177.653 54.3835 177.371 54.677 177.17C54.9735 176.969 55.3209 176.869 55.7191 176.869C55.9342 176.869 56.1362 176.904 56.3252 176.974C56.517 177.041 56.687 177.135 56.8353 177.257C56.9835 177.379 57.0998 177.525 57.1841 177.693H57.2539V175.086H58.0125V181.652H57.2539V180.902H57.1841C57.0882 181.077 56.9675 181.226 56.8222 181.351C56.6769 181.473 56.5112 181.568 56.3252 181.635C56.1391 181.702 55.9371 181.735 55.7191 181.735ZM55.8935 181.064C56.1784 181.064 56.424 180.992 56.6304 180.85C56.8367 180.707 56.9952 180.505 57.1056 180.244C57.2161 179.979 57.2713 179.667 57.2713 179.306V179.298C57.2713 178.934 57.2161 178.622 57.1056 178.36C56.9952 178.099 56.8367 177.897 56.6304 177.754C56.424 177.612 56.1784 177.541 55.8935 177.541C55.6086 177.541 55.363 177.612 55.1566 177.754C54.9532 177.894 54.7962 178.094 54.6858 178.356C54.5782 178.618 54.5244 178.931 54.5244 179.298V179.306C54.5244 179.67 54.5782 179.984 54.6858 180.248C54.7962 180.51 54.9532 180.712 55.1566 180.854C55.363 180.994 55.6086 181.064 55.8935 181.064ZM61.2041 181.735C60.8088 181.735 60.4629 181.635 60.1664 181.434C59.8699 181.234 59.6403 180.952 59.4775 180.588C59.3147 180.222 59.2333 179.795 59.2333 179.306V179.298C59.2333 178.806 59.3147 178.379 59.4775 178.016C59.6403 177.653 59.8685 177.371 60.1621 177.17C60.4585 176.969 60.8059 176.869 61.2041 176.869C61.4192 176.869 61.6212 176.904 61.8102 176.974C62.002 177.041 62.1721 177.135 62.3203 177.257C62.4685 177.379 62.5848 177.525 62.6691 177.693H62.7389V175.086H63.4975V181.652H62.7389V180.902H62.6691C62.5732 181.077 62.4526 181.226 62.3072 181.351C62.1619 181.473 61.9962 181.568 61.8102 181.635C61.6241 181.702 61.4221 181.735 61.2041 181.735ZM61.3785 181.064C61.6634 181.064 61.909 180.992 62.1154 180.85C62.3218 180.707 62.4802 180.505 62.5906 180.244C62.7011 179.979 62.7563 179.667 62.7563 179.306V179.298C62.7563 178.934 62.7011 178.622 62.5906 178.36C62.4802 178.099 62.3218 177.897 62.1154 177.754C61.909 177.612 61.6634 177.541 61.3785 177.541C61.0937 177.541 60.848 177.612 60.6417 177.754C60.4382 177.894 60.2812 178.094 60.1708 178.356C60.0632 178.618 60.0094 178.931 60.0094 179.298V179.306C60.0094 179.67 60.0632 179.984 60.1708 180.248C60.2812 180.51 60.4382 180.712 60.6417 180.854C60.848 180.994 61.0937 181.064 61.3785 181.064ZM64.9538 181.652V176.952H65.7125V177.65H65.7822C65.8723 177.403 66.0249 177.211 66.24 177.074C66.4551 176.937 66.7211 176.869 67.0379 176.869C67.1106 176.869 67.1818 176.874 67.2516 176.882C67.3243 176.888 67.3795 176.894 67.4173 176.9V177.637C67.3388 177.622 67.2618 177.612 67.1862 177.606C67.1135 177.597 67.035 177.593 66.9507 177.593C66.7095 177.593 66.4958 177.641 66.3098 177.737C66.1238 177.833 65.977 177.966 65.8694 178.138C65.7648 178.309 65.7125 178.51 65.7125 178.74V181.652H64.9538ZM70.1423 181.735C69.6947 181.735 69.3096 181.636 68.9869 181.439C68.6672 181.241 68.4201 180.962 68.2457 180.601C68.0742 180.238 67.9884 179.811 67.9884 179.32V179.315C67.9884 178.83 68.0742 178.404 68.2457 178.038C68.4201 177.671 68.6657 177.385 68.9826 177.179C69.2994 176.972 69.67 176.869 70.0944 176.869C70.5217 176.869 70.8879 176.968 71.1931 177.166C71.5012 177.363 71.7367 177.639 71.8995 177.994C72.0651 178.346 72.148 178.756 72.148 179.224V179.52H68.3809V178.914H71.7599L71.385 179.468V179.167C71.385 178.798 71.3297 178.494 71.2193 178.256C71.1088 178.017 70.9562 177.84 70.7615 177.724C70.5667 177.605 70.3429 177.545 70.09 177.545C69.8371 177.545 69.6104 177.607 69.4098 177.732C69.2122 177.855 69.0552 178.036 68.939 178.277C68.8227 178.519 68.7645 178.815 68.7645 179.167V179.468C68.7645 179.802 68.8212 180.088 68.9346 180.327C69.048 180.562 69.2093 180.744 69.4186 180.872C69.6278 180.997 69.8749 181.059 70.1598 181.059C70.372 181.059 70.5566 181.03 70.7135 180.972C70.8705 180.914 70.9998 180.84 71.1016 180.75C71.2033 180.66 71.2745 180.568 71.3152 180.475L71.3327 180.436H72.0913L72.0826 180.471C72.0419 180.63 71.9692 180.786 71.8646 180.937C71.7628 181.085 71.6306 181.221 71.4678 181.343C71.305 181.462 71.1117 181.558 70.8879 181.63C70.667 181.7 70.4185 181.735 70.1423 181.735ZM74.9385 181.735C74.5897 181.735 74.2815 181.683 74.0141 181.578C73.7467 181.471 73.5316 181.321 73.3688 181.129C73.209 180.937 73.1145 180.712 73.0854 180.453H73.8615C73.9255 180.648 74.0505 180.805 74.2365 180.924C74.4225 181.043 74.6652 181.103 74.9646 181.103C75.1768 181.103 75.3628 181.072 75.5227 181.011C75.6855 180.947 75.8134 180.862 75.9064 180.754C75.9994 180.644 76.0459 180.517 76.0459 180.375V180.366C76.0459 180.206 75.982 180.071 75.8541 179.96C75.7262 179.847 75.5169 179.756 75.2262 179.686L74.4981 179.511C74.2045 179.442 73.9633 179.352 73.7743 179.241C73.5854 179.128 73.4459 178.99 73.3557 178.827C73.2656 178.661 73.2206 178.466 73.2206 178.243V178.238C73.2206 177.977 73.2962 177.743 73.4473 177.536C73.6014 177.33 73.8106 177.167 74.0752 177.048C74.3397 176.929 74.6376 176.869 74.969 176.869C75.2974 176.869 75.5881 176.921 75.841 177.026C76.0968 177.128 76.3017 177.273 76.4558 177.462C76.6127 177.651 76.7087 177.873 76.7435 178.129H75.998C75.9486 177.943 75.8352 177.792 75.6579 177.676C75.4806 177.559 75.2495 177.501 74.9646 177.501C74.7786 177.501 74.6129 177.532 74.4676 177.593C74.3222 177.651 74.2074 177.732 74.1231 177.837C74.0388 177.942 73.9967 178.064 73.9967 178.203V178.212C73.9967 178.317 74.0243 178.41 74.0795 178.491C74.1347 178.572 74.2205 178.644 74.3368 178.705C74.453 178.766 74.6027 178.82 74.7859 178.866L75.5096 179.04C75.9515 179.148 76.2799 179.302 76.495 179.503C76.713 179.703 76.822 179.972 76.822 180.309V180.318C76.822 180.597 76.7392 180.844 76.5735 181.059C76.4078 181.271 76.1825 181.437 75.8977 181.556C75.6157 181.675 75.296 181.735 74.9385 181.735ZM79.5253 181.735C79.1765 181.735 78.8684 181.683 78.601 181.578C78.3335 181.471 78.1184 181.321 77.9557 181.129C77.7958 180.937 77.7013 180.712 77.6722 180.453H78.4483C78.5123 180.648 78.6373 180.805 78.8233 180.924C79.0093 181.043 79.2521 181.103 79.5515 181.103C79.7636 181.103 79.9497 181.072 80.1095 181.011C80.2723 180.947 80.4002 180.862 80.4932 180.754C80.5863 180.644 80.6328 180.517 80.6328 180.375V180.366C80.6328 180.206 80.5688 180.071 80.4409 179.96C80.313 179.847 80.1037 179.756 79.8131 179.686L79.0849 179.511C78.7913 179.442 78.5501 179.352 78.3611 179.241C78.1722 179.128 78.0327 178.99 77.9426 178.827C77.8525 178.661 77.8074 178.466 77.8074 178.243V178.238C77.8074 177.977 77.883 177.743 78.0341 177.536C78.1882 177.33 78.3975 177.167 78.662 177.048C78.9265 176.929 79.2244 176.869 79.5558 176.869C79.8843 176.869 80.175 176.921 80.4278 177.026C80.6836 177.128 80.8886 177.273 81.0426 177.462C81.1996 177.651 81.2955 177.873 81.3304 178.129H80.5848C80.5354 177.943 80.422 177.792 80.2447 177.676C80.0674 177.559 79.8363 177.501 79.5515 177.501C79.3654 177.501 79.1997 177.532 79.0544 177.593C78.9091 177.651 78.7943 177.732 78.71 177.837C78.6257 177.942 78.5835 178.064 78.5835 178.203V178.212C78.5835 178.317 78.6111 178.41 78.6664 178.491C78.7216 178.572 78.8073 178.644 78.9236 178.705C79.0399 178.766 79.1896 178.82 79.3727 178.866L80.0965 179.04C80.5383 179.148 80.8668 179.302 81.0819 179.503C81.2999 179.703 81.4089 179.972 81.4089 180.309V180.318C81.4089 180.597 81.326 180.844 81.1603 181.059C80.9947 181.271 80.7694 181.437 80.4845 181.556C80.2026 181.675 79.8828 181.735 79.5253 181.735ZM85.1411 181.652V175.086H85.8998V181.652H85.1411ZM87.3735 181.652V176.952H88.1322V181.652H87.3735ZM87.7572 176.045C87.6148 176.045 87.4912 175.994 87.3866 175.892C87.2848 175.788 87.234 175.664 87.234 175.522C87.234 175.377 87.2848 175.253 87.3866 175.151C87.4912 175.05 87.6148 174.999 87.7572 174.999C87.9025 174.999 88.0261 175.05 88.1278 175.151C88.2295 175.253 88.2804 175.377 88.2804 175.522C88.2804 175.664 88.2295 175.788 88.1278 175.892C88.0261 175.994 87.9025 176.045 87.7572 176.045ZM89.5623 181.652V176.952H90.3209V177.658H90.3907C90.5099 177.408 90.6814 177.215 90.9052 177.078C91.129 176.939 91.4139 176.869 91.7598 176.869C92.2888 176.869 92.6943 177.02 92.9762 177.323C93.2611 177.622 93.4035 178.051 93.4035 178.609V181.652H92.6449V178.792C92.6449 178.368 92.5548 178.054 92.3745 177.85C92.1972 177.644 91.9211 177.541 91.5461 177.541C91.2961 177.541 91.0796 177.594 90.8965 177.702C90.7133 177.809 90.5709 177.962 90.4692 178.16C90.3703 178.357 90.3209 178.594 90.3209 178.87V181.652H89.5623ZM96.6954 181.735C96.2478 181.735 95.8626 181.636 95.54 181.439C95.2202 181.241 94.9732 180.962 94.7988 180.601C94.6273 180.238 94.5415 179.811 94.5415 179.32V179.315C94.5415 178.83 94.6273 178.404 94.7988 178.038C94.9732 177.671 95.2188 177.385 95.5356 177.179C95.8524 176.972 96.2231 176.869 96.6474 176.869C97.0747 176.869 97.441 176.968 97.7462 177.166C98.0543 177.363 98.2897 177.639 98.4525 177.994C98.6182 178.346 98.7011 178.756 98.7011 179.224V179.52H94.9339V178.914H98.313L97.938 179.468V179.167C97.938 178.798 97.8828 178.494 97.7724 178.256C97.6619 178.017 97.5093 177.84 97.3145 177.724C97.1198 177.605 96.896 177.545 96.6431 177.545C96.3902 177.545 96.1635 177.607 95.9629 177.732C95.7652 177.855 95.6083 178.036 95.492 178.277C95.3757 178.519 95.3176 178.815 95.3176 179.167V179.468C95.3176 179.802 95.3743 180.088 95.4877 180.327C95.601 180.562 95.7623 180.744 95.9716 180.872C96.1809 180.997 96.428 181.059 96.7128 181.059C96.925 181.059 97.1096 181.03 97.2666 180.972C97.4235 180.914 97.5529 180.84 97.6546 180.75C97.7564 180.66 97.8276 180.568 97.8683 180.475L97.8857 180.436H98.6444L98.6357 180.471C98.595 180.63 98.5223 180.786 98.4176 180.937C98.3159 181.085 98.1837 181.221 98.0209 181.343C97.8581 181.462 97.6648 181.558 97.441 181.63C97.2201 181.7 96.9715 181.735 96.6954 181.735ZM102.385 181.652V181.112L104.513 178.809C104.78 178.519 104.99 178.279 105.141 178.09C105.292 177.898 105.398 177.725 105.459 177.571C105.52 177.417 105.551 177.248 105.551 177.065V177.057C105.551 176.836 105.503 176.638 105.407 176.464C105.311 176.289 105.174 176.151 104.997 176.049C104.82 175.948 104.608 175.897 104.36 175.897C104.11 175.897 103.891 175.949 103.702 176.054C103.513 176.156 103.366 176.299 103.262 176.485C103.157 176.669 103.105 176.884 103.105 177.131L103.1 177.139L102.35 177.135L102.342 177.131C102.345 176.759 102.435 176.429 102.612 176.141C102.789 175.85 103.034 175.624 103.345 175.461C103.656 175.295 104.012 175.212 104.413 175.212C104.779 175.212 105.109 175.289 105.403 175.443C105.696 175.595 105.927 175.802 106.096 176.067C106.267 176.331 106.353 176.634 106.353 176.974V176.983C106.353 177.221 106.311 177.45 106.227 177.671C106.145 177.892 106 178.138 105.791 178.408C105.581 178.676 105.286 179.006 104.905 179.398L103.279 181.077L103.475 180.715V181.077L103.284 180.946H106.458V181.652H102.385Z" fill="#919191"/>
<path d="M40.1549 213.612H302.236V223.925C302.236 226.305 302.236 228.075 302.121 229.479C302.007 230.88 301.779 231.894 301.336 232.765C300.544 234.319 299.28 235.583 297.726 236.375C296.855 236.818 295.84 237.046 294.44 237.16C293.036 237.275 291.265 237.275 288.886 237.275H47.0752C45.8213 237.275 44.8943 237.275 44.161 237.215C43.4303 237.155 42.9116 237.037 42.4708 236.813C41.6727 236.406 41.0238 235.757 40.6172 234.959C40.3926 234.518 40.2747 234 40.215 233.269C40.1551 232.536 40.1549 231.609 40.1549 230.355V213.612Z" fill="white"/>
<path d="M40.1549 213.612H302.236V223.925C302.236 226.305 302.236 228.075 302.121 229.479C302.007 230.88 301.779 231.894 301.336 232.765C300.544 234.319 299.28 235.583 297.726 236.375C296.855 236.818 295.84 237.046 294.44 237.16C293.036 237.275 291.265 237.275 288.886 237.275H47.0752C45.8213 237.275 44.8943 237.275 44.161 237.215C43.4303 237.155 42.9116 237.037 42.4708 236.813C41.6727 236.406 41.0238 235.757 40.6172 234.959C40.3926 234.518 40.2747 234 40.215 233.269C40.1551 232.536 40.1549 231.609 40.1549 230.355V213.612Z" stroke="#D2D2D2" stroke-width="0.446475"/>
<path d="M50.3864 229.126C49.9272 229.126 49.526 229.052 49.1831 228.904C48.843 228.753 48.5726 228.546 48.3721 228.285C48.1744 228.02 48.0596 227.718 48.0276 227.378L48.0233 227.33H48.8081L48.8124 227.378C48.8328 227.587 48.9127 227.769 49.0522 227.923C49.1947 228.074 49.3836 228.192 49.6191 228.276C49.8574 228.36 50.1277 228.403 50.43 228.403C50.7149 228.403 50.9678 228.357 51.1887 228.267C51.4125 228.174 51.5884 228.046 51.7163 227.884C51.8442 227.721 51.9081 227.533 51.9081 227.321V227.317C51.9081 227.055 51.8122 226.836 51.6204 226.658C51.4285 226.478 51.116 226.34 50.6829 226.244L49.9853 226.092C49.3545 225.952 48.8953 225.737 48.6075 225.446C48.3227 225.153 48.1802 224.778 48.1802 224.321V224.317C48.1831 223.968 48.2776 223.66 48.4636 223.393C48.6526 223.125 48.9127 222.916 49.2441 222.765C49.5784 222.614 49.9621 222.538 50.3952 222.538C50.8137 222.538 51.1843 222.614 51.507 222.765C51.8296 222.913 52.0854 223.114 52.2744 223.367C52.4662 223.619 52.5723 223.903 52.5927 224.217L52.597 224.278H51.8122L51.8035 224.221C51.7744 224.035 51.6988 223.871 51.5768 223.729C51.4547 223.583 51.2919 223.468 51.0884 223.384C50.8849 223.3 50.6466 223.259 50.3734 223.262C50.1118 223.262 49.8763 223.303 49.667 223.384C49.4577 223.465 49.2906 223.583 49.1656 223.737C49.0435 223.888 48.9825 224.074 48.9825 224.295V224.3C48.9825 224.55 49.0755 224.76 49.2615 224.932C49.4476 225.103 49.7542 225.236 50.1815 225.329L50.8791 225.486C51.3181 225.582 51.6712 225.707 51.9386 225.861C52.2061 226.015 52.4008 226.204 52.5229 226.427C52.6479 226.648 52.7104 226.91 52.7104 227.212V227.217C52.7104 227.609 52.6145 227.948 52.4226 228.232C52.2308 228.517 51.9604 228.738 51.6116 228.895C51.2628 229.049 50.8544 229.126 50.3864 229.126ZM55.5924 229.013C55.1099 229.013 54.7596 228.916 54.5416 228.721C54.3265 228.526 54.219 228.205 54.219 227.757V224.906H53.4778V224.278H54.219V223.061H55.0038V224.278H56.0328V224.906H55.0038V227.565C55.0038 227.842 55.0561 228.041 55.1608 228.163C55.2654 228.282 55.4398 228.341 55.684 228.341C55.7508 228.341 55.8075 228.34 55.854 228.337C55.9034 228.334 55.963 228.33 56.0328 228.324V228.969C55.9601 228.981 55.8874 228.991 55.8148 229C55.7421 229.009 55.668 229.013 55.5924 229.013ZM58.457 229.061C58.1605 229.061 57.8931 229.004 57.6547 228.891C57.4193 228.778 57.2318 228.616 57.0923 228.407C56.9557 228.198 56.8874 227.951 56.8874 227.666V227.657C56.8874 227.378 56.9542 227.14 57.0879 226.942C57.2216 226.741 57.4164 226.584 57.6722 226.471C57.928 226.358 58.2375 226.291 58.6009 226.27L60.3275 226.166V226.772L58.6925 226.877C58.3349 226.897 58.0733 226.971 57.9076 227.099C57.7449 227.227 57.6635 227.407 57.6635 227.64V227.648C57.6635 227.887 57.7536 228.073 57.9338 228.206C58.114 228.337 58.3407 228.403 58.614 228.403C58.8727 228.403 59.1023 228.352 59.3029 228.25C59.5034 228.145 59.6604 228.004 59.7738 227.827C59.89 227.65 59.9482 227.449 59.9482 227.225V225.76C59.9482 225.47 59.8595 225.249 59.6822 225.098C59.5078 224.944 59.2447 224.866 58.893 224.866C58.6111 224.866 58.38 224.917 58.1998 225.019C58.0195 225.118 57.8989 225.259 57.8379 225.442L57.8335 225.455H57.0748L57.0792 225.429C57.1199 225.182 57.2216 224.967 57.3844 224.784C57.5501 224.598 57.7637 224.454 58.0254 224.352C58.287 224.247 58.5849 224.195 58.9192 224.195C59.3029 224.195 59.627 224.258 59.8915 224.383C60.1589 224.508 60.3609 224.688 60.4975 224.923C60.6371 225.156 60.7068 225.435 60.7068 225.76V228.978H59.9482V228.285H59.8784C59.7796 228.45 59.6589 228.591 59.5165 228.708C59.377 228.824 59.2186 228.913 59.0413 228.974C58.8639 229.032 58.6692 229.061 58.457 229.061ZM63.7633 229.013C63.2807 229.013 62.9305 228.916 62.7125 228.721C62.4974 228.526 62.3898 228.205 62.3898 227.757V224.906H61.6486V224.278H62.3898V223.061H63.1746V224.278H64.2036V224.906H63.1746V227.565C63.1746 227.842 63.227 228.041 63.3316 228.163C63.4362 228.282 63.6107 228.341 63.8548 228.341C63.9217 228.341 63.9784 228.34 64.0249 228.337C64.0743 228.334 64.1339 228.33 64.2036 228.324V228.969C64.131 228.981 64.0583 228.991 63.9856 229C63.913 229.009 63.8388 229.013 63.7633 229.013ZM67.1947 229.061C66.747 229.061 66.3619 228.962 66.0392 228.764C65.7195 228.567 65.4724 228.288 65.298 227.927C65.1265 227.564 65.0408 227.137 65.0408 226.645V226.641C65.0408 226.156 65.1265 225.73 65.298 225.364C65.4724 224.997 65.718 224.711 66.0349 224.505C66.3517 224.298 66.7223 224.195 67.1467 224.195C67.574 224.195 67.9402 224.294 68.2454 224.492C68.5536 224.689 68.789 224.965 68.9518 225.32C69.1175 225.672 69.2003 226.082 69.2003 226.549V226.846H65.4332V226.24H68.8123L68.4373 226.794V226.493C68.4373 226.124 68.3821 225.82 68.2716 225.582C68.1612 225.343 68.0086 225.166 67.8138 225.05C67.619 224.93 67.3952 224.871 67.1423 224.871C66.8895 224.871 66.6627 224.933 66.4622 225.058C66.2645 225.18 66.1075 225.362 65.9913 225.603C65.875 225.845 65.8169 226.141 65.8169 226.493V226.794C65.8169 227.128 65.8736 227.414 65.9869 227.653C66.1003 227.888 66.2616 228.07 66.4709 228.198C66.6802 228.323 66.9272 228.385 67.2121 228.385C67.4243 228.385 67.6089 228.356 67.7658 228.298C67.9228 228.24 68.0522 228.166 68.1539 228.076C68.2556 227.985 68.3268 227.894 68.3675 227.801L68.385 227.762H69.1436L69.1349 227.796C69.0942 227.956 69.0215 228.112 68.9169 228.263C68.8152 228.411 68.6829 228.546 68.5201 228.669C68.3574 228.788 68.1641 228.884 67.9402 228.956C67.7193 229.026 67.4708 229.061 67.1947 229.061Z" fill="#919191"/>
<rect x="40.1549" y="189.949" width="130.817" height="23.6632" fill="white"/>
<rect x="40.1549" y="189.949" width="130.817" height="23.6632" stroke="#D2D2D2" stroke-width="0.446475"/>
<path d="M50.8573 205.464C50.2876 205.464 49.7949 205.33 49.3793 205.063C48.9636 204.795 48.6424 204.416 48.4157 203.925C48.1919 203.433 48.0799 202.851 48.0799 202.176V202.167C48.0799 201.49 48.1919 200.906 48.4157 200.415C48.6424 199.923 48.9621 199.544 49.3749 199.277C49.7906 199.009 50.2833 198.876 50.853 198.876C51.2948 198.876 51.6959 198.963 52.0564 199.137C52.4197 199.309 52.7191 199.548 52.9545 199.857C53.19 200.162 53.3382 200.515 53.3993 200.916L53.3949 200.925H52.6057L52.6014 200.916C52.5316 200.646 52.4139 200.413 52.2482 200.218C52.0825 200.021 51.8805 199.868 51.6422 199.761C51.4067 199.653 51.1436 199.599 50.853 199.599C50.4518 199.599 50.103 199.704 49.8065 199.913C49.513 200.123 49.2862 200.419 49.1264 200.803C48.9665 201.186 48.8866 201.641 48.8866 202.167V202.176C48.8866 202.699 48.9665 203.153 49.1264 203.537C49.2862 203.92 49.513 204.217 49.8065 204.426C50.103 204.635 50.4533 204.74 50.8573 204.74C51.1509 204.74 51.4169 204.693 51.6552 204.6C51.8936 204.504 52.0942 204.369 52.2569 204.195C52.4197 204.018 52.5331 203.808 52.597 203.567L52.6057 203.558H53.3993V203.567C53.3295 203.951 53.1784 204.285 52.9458 204.57C52.7133 204.852 52.4183 205.071 52.0607 205.228C51.7061 205.385 51.305 205.464 50.8573 205.464ZM54.6375 205.315V200.615H55.3962V205.315H54.6375ZM55.0212 199.708C54.8788 199.708 54.7553 199.657 54.6506 199.556C54.5489 199.451 54.498 199.328 54.498 199.185C54.498 199.04 54.5489 198.916 54.6506 198.815C54.7553 198.713 54.8788 198.662 55.0212 198.662C55.1666 198.662 55.2901 198.713 55.3918 198.815C55.4936 198.916 55.5445 199.04 55.5445 199.185C55.5445 199.328 55.4936 199.451 55.3918 199.556C55.2901 199.657 55.1666 199.708 55.0212 199.708ZM58.4962 205.35C58.0137 205.35 57.6635 205.253 57.4455 205.058C57.2304 204.863 57.1228 204.542 57.1228 204.095V201.243H56.3816V200.615H57.1228V199.399H57.9076V200.615H58.9366V201.243H57.9076V203.903C57.9076 204.179 57.96 204.378 58.0646 204.5C58.1692 204.619 58.3436 204.679 58.5878 204.679C58.6547 204.679 58.7113 204.677 58.7579 204.675C58.8073 204.672 58.8669 204.667 58.9366 204.661V205.307C58.8639 205.318 58.7913 205.329 58.7186 205.337C58.6459 205.346 58.5718 205.35 58.4962 205.35ZM60.4714 206.964C60.422 206.964 60.3667 206.961 60.3057 206.955C60.2446 206.952 60.188 206.946 60.1356 206.937V206.314C60.1822 206.323 60.233 206.328 60.2882 206.331C60.3435 206.334 60.3973 206.336 60.4496 206.336C60.6647 206.336 60.8405 206.28 60.9771 206.17C61.1167 206.06 61.2286 205.869 61.3129 205.599L61.4001 205.32L59.6604 200.615H60.4714L61.9189 204.958L61.6181 204.483H61.9756L61.6748 204.958L63.118 200.615H63.9159L62.0803 205.603C61.9524 205.955 61.8172 206.23 61.6748 206.427C61.5323 206.625 61.3652 206.763 61.1734 206.841C60.9844 206.923 60.7504 206.964 60.4714 206.964Z" fill="#919191"/>
<rect x="170.972" y="189.949" width="131.264" height="23.6632" fill="white"/>
<rect x="170.972" y="189.949" width="131.264" height="23.6632" stroke="#D2D2D2" stroke-width="0.446475"/>
<path d="M178.967 205.315V204.757L182.53 199.8V199.73H179.09V199.024H183.546V199.582L180.001 204.539V204.609H183.62V205.315H178.967ZM185.054 205.315V199.024H185.839V205.315H185.054ZM187.836 203.07V202.372H189.615C190.065 202.372 190.414 202.256 190.661 202.024C190.908 201.788 191.032 201.464 191.032 201.051V201.043C191.032 200.627 190.908 200.303 190.661 200.07C190.414 199.838 190.065 199.721 189.615 199.721H187.836V199.024H189.815C190.211 199.024 190.56 199.108 190.862 199.277C191.164 199.445 191.401 199.681 191.573 199.983C191.747 200.285 191.834 200.636 191.834 201.034V201.043C191.834 201.441 191.747 201.792 191.573 202.098C191.401 202.403 191.164 202.641 190.862 202.813C190.56 202.984 190.211 203.07 189.815 203.07H187.836ZM187.444 205.315V199.024H188.228V205.315H187.444Z" fill="#919191"/>
<rect x="7.78662" y="6.22426" width="326.82" height="32.5927" fill="#F9F9F9"/>
<path d="M23.9472 24.2422V22.9726H26.2912C26.8569 22.9726 27.2964 22.8281 27.6097 22.5392C27.9231 22.2462 28.0797 21.8351 28.0797 21.3061V21.2939C28.0797 20.7608 27.9231 20.3498 27.6097 20.0609C27.2964 19.7719 26.8569 19.6275 26.2912 19.6275H23.9472V18.3456H26.6758C27.274 18.3456 27.7969 18.4677 28.2445 18.7119C28.6922 18.956 29.0422 19.2999 29.2945 19.7435C29.5468 20.183 29.6729 20.6977 29.6729 21.2878V21.3C29.6729 21.886 29.5468 22.4008 29.2945 22.8444C29.0422 23.2839 28.6922 23.6277 28.2445 23.876C27.7969 24.1201 27.274 24.2422 26.6758 24.2422H23.9472ZM23.1598 27.1539V18.3456H24.7347V27.1539H23.1598ZM32.8288 27.2638C32.4096 27.2638 32.0332 27.1824 31.6995 27.0196C31.3699 26.8568 31.1094 26.6269 30.9182 26.3298C30.731 26.0287 30.6374 25.6747 30.6374 25.2677V25.2555C30.6374 24.8608 30.735 24.521 30.9304 24.2361C31.1257 23.9472 31.4126 23.7213 31.7911 23.5586C32.1695 23.3958 32.6294 23.3001 33.1706 23.2717L35.6367 23.1191V24.1201L33.3842 24.2666C32.9569 24.2911 32.6416 24.3806 32.4381 24.5352C32.2346 24.6899 32.1329 24.9055 32.1329 25.1823V25.1945C32.1329 25.4793 32.2407 25.7011 32.4564 25.8598C32.6762 26.0185 32.9549 26.0979 33.2927 26.0979C33.5979 26.0979 33.8705 26.0368 34.1106 25.9148C34.3507 25.7927 34.54 25.6279 34.6783 25.4203C34.8167 25.2087 34.8859 24.9706 34.8859 24.7061V22.5941C34.8859 22.2604 34.7801 22.0061 34.5684 21.8311C34.3568 21.652 34.0435 21.5625 33.6284 21.5625C33.2825 21.5625 32.9997 21.6235 32.7799 21.7456C32.5602 21.8636 32.4116 22.0325 32.3343 22.2523L32.3282 22.2767H30.8937L30.8998 22.2217C30.9487 21.8474 31.0952 21.5198 31.3393 21.239C31.5835 20.9582 31.907 20.7405 32.3099 20.5858C32.7128 20.4312 33.1767 20.3539 33.7017 20.3539C34.2795 20.3539 34.7678 20.4434 35.1667 20.6225C35.5655 20.7974 35.8686 21.0538 36.0762 21.3916C36.2837 21.7253 36.3875 22.1261 36.3875 22.5941V27.1539H34.8859V26.2383H34.7821C34.66 26.4499 34.5013 26.633 34.306 26.7877C34.1147 26.9423 33.895 27.0603 33.6467 27.1417C33.3985 27.2231 33.1258 27.2638 32.8288 27.2638ZM38.7193 29.4979C38.6257 29.4979 38.528 29.4959 38.4263 29.4918C38.3286 29.4877 38.233 29.4816 38.1394 29.4735V28.3076C38.2004 28.3157 38.2716 28.3198 38.353 28.3198C38.4344 28.3239 38.5138 28.3259 38.5911 28.3259C38.9044 28.3259 39.1547 28.2567 39.3419 28.1184C39.5332 27.9841 39.6695 27.7664 39.7509 27.4652L39.8302 27.16L37.4435 20.4821H39.1038L40.8618 26.3909L40.4467 25.695H40.9717L40.5688 26.3909L42.3268 20.4821H43.9261L41.5333 27.3004C41.342 27.8538 41.1223 28.2913 40.874 28.6128C40.6258 28.9343 40.3267 29.1622 39.9767 29.2965C39.6308 29.4307 39.2117 29.4979 38.7193 29.4979ZM45.2202 27.1539V20.4821H46.7401V21.5198H46.8439C46.9863 21.1494 47.2162 20.8626 47.5337 20.6591C47.8551 20.4556 48.2356 20.3539 48.6751 20.3539C48.9763 20.3539 49.2469 20.4027 49.487 20.5004C49.7312 20.598 49.9407 20.7364 50.1157 20.9155C50.2907 21.0945 50.425 21.3082 50.5186 21.5564H50.6285C50.7383 21.3163 50.8909 21.1067 51.0863 20.9277C51.2857 20.7445 51.5176 20.6041 51.7822 20.5065C52.0507 20.4047 52.3397 20.3539 52.6489 20.3539C53.0966 20.3539 53.4791 20.4434 53.7965 20.6225C54.118 20.7974 54.3642 21.0497 54.5351 21.3794C54.7101 21.709 54.7976 22.1037 54.7976 22.5636V27.1539H53.2777V22.9359C53.2777 22.6429 53.2329 22.4008 53.1434 22.2095C53.0579 22.0183 52.9257 21.8738 52.7466 21.7761C52.5676 21.6785 52.3417 21.6296 52.069 21.6296C51.8045 21.6296 51.5746 21.6907 51.3793 21.8128C51.1839 21.9308 51.0313 22.0915 50.9215 22.295C50.8157 22.4985 50.7628 22.7284 50.7628 22.9848V27.1539H49.2428V22.8261C49.2428 22.5778 49.194 22.3642 49.0963 22.1851C49.0027 22.0061 48.8644 21.8697 48.6812 21.7761C48.5022 21.6785 48.2885 21.6296 48.0403 21.6296C47.7921 21.6296 47.5683 21.6948 47.3689 21.825C47.1735 21.9511 47.0189 22.1261 46.9049 22.3499C46.7951 22.5697 46.7401 22.8179 46.7401 23.0946V27.1539H45.2202ZM59.4429 27.2882C58.7796 27.2882 58.2098 27.1478 57.7337 26.867C57.2617 26.5862 56.8974 26.1874 56.6411 25.6706C56.3847 25.1538 56.2565 24.5413 56.2565 23.8332V23.8271C56.2565 23.1272 56.3827 22.5168 56.635 21.9959C56.8913 21.475 57.2535 21.0721 57.7215 20.7873C58.1895 20.4983 58.7389 20.3539 59.3696 20.3539C60.0045 20.3539 60.5498 20.4943 61.0055 20.7751C61.4654 21.0518 61.8194 21.4404 62.0677 21.941C62.3159 22.4415 62.44 23.0275 62.44 23.6989V24.1995H57.0195V23.1801H61.6953L60.975 24.1323V23.528C60.975 23.0845 60.9079 22.7162 60.7736 22.4232C60.6393 22.1302 60.4521 21.9104 60.212 21.7639C59.976 21.6174 59.7013 21.5442 59.3879 21.5442C59.0746 21.5442 58.7958 21.6215 58.5517 21.7761C58.3116 21.9267 58.1203 22.1505 57.9779 22.4476C57.8395 22.7406 57.7703 23.1007 57.7703 23.528V24.1384C57.7703 24.5495 57.8395 24.9015 57.9779 25.1945C58.1162 25.4834 58.3116 25.7072 58.5639 25.8659C58.8202 26.0206 59.1234 26.0979 59.4734 26.0979C59.746 26.0979 59.98 26.0592 60.1754 25.9819C60.3748 25.9005 60.5355 25.8049 60.6576 25.695C60.7797 25.5811 60.8651 25.4732 60.914 25.3715L60.9323 25.3288H62.3729L62.3607 25.3837C62.3078 25.5994 62.2101 25.8191 62.0677 26.0429C61.9293 26.2627 61.7401 26.4682 61.5 26.6595C61.2639 26.8467 60.975 26.9993 60.6332 27.1173C60.2913 27.2312 59.8946 27.2882 59.4429 27.2882ZM63.9599 27.1539V20.4821H65.4799V21.5076H65.5836C65.7424 21.1454 65.9824 20.8626 66.3039 20.6591C66.6254 20.4556 67.0263 20.3539 67.5065 20.3539C68.2512 20.3539 68.8209 20.5696 69.2156 21.0009C69.6104 21.4323 69.8077 22.0447 69.8077 22.8383V27.1539H68.2878V23.1923C68.2878 22.6714 68.1779 22.2808 67.9582 22.0203C67.7425 21.7599 67.4047 21.6296 66.9449 21.6296C66.6437 21.6296 66.3833 21.6968 66.1635 21.8311C65.9438 21.9654 65.7749 22.1546 65.6569 22.3988C65.5389 22.6429 65.4799 22.9319 65.4799 23.2656V27.1539H63.9599ZM74.2271 27.1844C73.4621 27.1844 72.9107 27.044 72.5729 26.7632C72.2351 26.4824 72.0663 26.0226 72.0663 25.3837V21.6602H71.0286V20.4821H72.0663V18.8461H73.6106V20.4821H75.0146V21.6602H73.6106V25.0236C73.6106 25.3532 73.6798 25.5953 73.8181 25.7499C73.9606 25.9005 74.1885 25.9758 74.5018 25.9758C74.6117 25.9758 74.7012 25.9738 74.7704 25.9697C74.8436 25.9616 74.925 25.9534 75.0146 25.9453V27.1173C74.9088 27.1376 74.7867 27.1539 74.6483 27.1661C74.514 27.1783 74.3736 27.1844 74.2271 27.1844ZM80.0261 27.1539V18.3456H83.3284C84.2033 18.3456 84.9481 18.5165 85.5625 18.8584C86.1811 19.2002 86.6531 19.6967 86.9787 20.3478C87.3083 20.9989 87.4731 21.7843 87.4731 22.704V22.7162C87.4731 23.6562 87.3104 24.4579 86.9848 25.1212C86.6593 25.7805 86.1872 26.2851 85.5686 26.635C84.9542 26.9809 84.2074 27.1539 83.3284 27.1539H80.0261ZM81.6009 25.8293H83.1209C83.7028 25.8293 84.1993 25.7093 84.6103 25.4692C85.0213 25.2291 85.3326 24.8791 85.5442 24.4192C85.7599 23.9594 85.8677 23.3998 85.8677 22.7406V22.7284C85.8677 22.0854 85.7579 21.536 85.5381 21.0803C85.3224 20.6204 85.0091 20.2705 84.5981 20.0304C84.1871 19.7903 83.6947 19.6702 83.1209 19.6702H81.6009V25.8293ZM91.978 27.2882C91.3147 27.2882 90.745 27.1478 90.2688 26.867C89.7968 26.5862 89.4326 26.1874 89.1762 25.6706C88.9198 25.1538 88.7916 24.5413 88.7916 23.8332V23.8271C88.7916 23.1272 88.9178 22.5168 89.1701 21.9959C89.4265 21.475 89.7886 21.0721 90.2566 20.7873C90.7246 20.4983 91.274 20.3539 91.9048 20.3539C92.5396 20.3539 93.0849 20.4943 93.5407 20.7751C94.0005 21.0518 94.3546 21.4404 94.6028 21.941C94.851 22.4415 94.9751 23.0275 94.9751 23.6989V24.1995H89.5547V23.1801H94.2304L93.5101 24.1323V23.528C93.5101 23.0845 93.443 22.7162 93.3087 22.4232C93.1744 22.1302 92.9872 21.9104 92.7471 21.7639C92.5111 21.6174 92.2364 21.5442 91.9231 21.5442C91.6097 21.5442 91.331 21.6215 91.0868 21.7761C90.8467 21.9267 90.6554 22.1505 90.513 22.4476C90.3746 22.7406 90.3055 23.1007 90.3055 23.528V24.1384C90.3055 24.5495 90.3746 24.9015 90.513 25.1945C90.6514 25.4834 90.8467 25.7072 91.099 25.8659C91.3554 26.0206 91.6586 26.0979 92.0085 26.0979C92.2812 26.0979 92.5152 26.0592 92.7105 25.9819C92.9099 25.9005 93.0706 25.8049 93.1927 25.695C93.3148 25.5811 93.4003 25.4732 93.4491 25.3715L93.4674 25.3288H94.908L94.8958 25.3837C94.8429 25.5994 94.7452 25.8191 94.6028 26.0429C94.4644 26.2627 94.2752 26.4682 94.0351 26.6595C93.7991 26.8467 93.5101 26.9993 93.1683 27.1173C92.8265 27.2312 92.4297 27.2882 91.978 27.2882ZM99.1199 27.1844C98.3548 27.1844 97.8034 27.044 97.4656 26.7632C97.1279 26.4824 96.959 26.0226 96.959 25.3837V21.6602H95.9213V20.4821H96.959V18.8461H98.5033V20.4821H99.9073V21.6602H98.5033V25.0236C98.5033 25.3532 98.5725 25.5953 98.7109 25.7499C98.8533 25.9005 99.0812 25.9758 99.3945 25.9758C99.5044 25.9758 99.594 25.9738 99.6631 25.9697C99.7364 25.9616 99.8178 25.9534 99.9073 25.9453V27.1173C99.8015 27.1376 99.6794 27.1539 99.541 27.1661C99.4068 27.1783 99.2664 27.1844 99.1199 27.1844ZM103.246 27.2638C102.827 27.2638 102.451 27.1824 102.117 27.0196C101.787 26.8568 101.527 26.6269 101.336 26.3298C101.148 26.0287 101.055 25.6747 101.055 25.2677V25.2555C101.055 24.8608 101.153 24.521 101.348 24.2361C101.543 23.9472 101.83 23.7213 102.209 23.5586C102.587 23.3958 103.047 23.3001 103.588 23.2717L106.054 23.1191V24.1201L103.802 24.2666C103.374 24.2911 103.059 24.3806 102.856 24.5352C102.652 24.6899 102.55 24.9055 102.55 25.1823V25.1945C102.55 25.4793 102.658 25.7011 102.874 25.8598C103.094 26.0185 103.372 26.0979 103.71 26.0979C104.015 26.0979 104.288 26.0368 104.528 25.9148C104.768 25.7927 104.957 25.6279 105.096 25.4203C105.234 25.2087 105.303 24.9706 105.303 24.7061V22.5941C105.303 22.2604 105.198 22.0061 104.986 21.8311C104.774 21.652 104.461 21.5625 104.046 21.5625C103.7 21.5625 103.417 21.6235 103.197 21.7456C102.978 21.8636 102.829 22.0325 102.752 22.2523L102.746 22.2767H101.311L101.317 22.2217C101.366 21.8474 101.513 21.5198 101.757 21.239C102.001 20.9582 102.325 20.7405 102.727 20.5858C103.13 20.4312 103.594 20.3539 104.119 20.3539C104.697 20.3539 105.185 20.4434 105.584 20.6225C105.983 20.7974 106.286 21.0538 106.494 21.3916C106.701 21.7253 106.805 22.1261 106.805 22.5941V27.1539H105.303V26.2383H105.2C105.078 26.4499 104.919 26.633 104.723 26.7877C104.532 26.9423 104.312 27.0603 104.064 27.1417C103.816 27.2231 103.543 27.2638 103.246 27.2638ZM108.648 27.1539V20.4821H110.162V27.1539H108.648ZM109.411 19.365C109.163 19.365 108.95 19.2775 108.771 19.1025C108.591 18.9275 108.502 18.718 108.502 18.4738C108.502 18.2215 108.591 18.0099 108.771 17.839C108.95 17.664 109.163 17.5765 109.411 17.5765C109.66 17.5765 109.871 17.664 110.046 17.839C110.225 18.0099 110.315 18.2215 110.315 18.4738C110.315 18.718 110.225 18.9275 110.046 19.1025C109.871 19.2775 109.66 19.365 109.411 19.365ZM112.097 27.1539V17.9H113.617V27.1539H112.097ZM118.049 27.2882C117.483 27.2882 116.995 27.2088 116.584 27.0501C116.177 26.8874 115.855 26.6635 115.619 26.3787C115.383 26.0897 115.243 25.756 115.198 25.3776V25.3654H116.706L116.712 25.3776C116.793 25.6095 116.946 25.7988 117.17 25.9453C117.394 26.0918 117.695 26.165 118.073 26.165C118.326 26.165 118.547 26.1304 118.739 26.0613C118.93 25.988 119.08 25.8883 119.19 25.7622C119.3 25.636 119.355 25.4895 119.355 25.3227V25.3104C119.355 25.1151 119.276 24.9523 119.117 24.8221C118.958 24.6878 118.696 24.58 118.33 24.4986L117.249 24.2544C116.826 24.1608 116.476 24.0306 116.199 23.8638C115.923 23.6969 115.715 23.4914 115.577 23.2472C115.442 23.0031 115.375 22.7182 115.375 22.3927V22.3866C115.375 21.9837 115.487 21.6296 115.711 21.3244C115.939 21.0192 116.254 20.7812 116.657 20.6102C117.06 20.4393 117.524 20.3539 118.049 20.3539C118.59 20.3539 119.056 20.4353 119.447 20.598C119.837 20.7608 120.143 20.9846 120.362 21.2695C120.582 21.5544 120.708 21.8779 120.741 22.2401V22.2523H119.312L119.306 22.234C119.249 22.0223 119.113 21.8433 118.897 21.6968C118.686 21.5462 118.401 21.4709 118.043 21.4709C117.819 21.4709 117.617 21.5055 117.438 21.5747C117.263 21.6439 117.125 21.7416 117.023 21.8677C116.926 21.9898 116.877 22.1343 116.877 22.3011V22.3072C116.877 22.4374 116.909 22.5514 116.975 22.649C117.044 22.7467 117.152 22.8322 117.298 22.9054C117.445 22.9787 117.638 23.0438 117.878 23.1007L118.958 23.3388C119.614 23.4853 120.098 23.703 120.411 23.9919C120.724 24.2809 120.881 24.6695 120.881 25.1578V25.1701C120.881 25.5933 120.759 25.9636 120.515 26.281C120.271 26.5984 119.935 26.8467 119.508 27.0257C119.08 27.2007 118.594 27.2882 118.049 27.2882Z" fill="black"/>
</g>
<rect x="8.00961" y="6.44745" width="326.373" height="420.133" rx="8.70627" stroke="#D6D6D6" stroke-width="0.446475"/>
</g>
<defs>
<filter id="filter0_d_1_587" x="0.151655" y="0.375391" width="342.089" height="435.849" filterUnits="userSpaceOnUse" color-interpolation-filters="sRGB">
<feFlood flood-opacity="0" result="BackgroundImageFix"/>
<feColorMatrix in="SourceAlpha" type="matrix" values="0 0 0 0 0 0 0 0 0 0 0 0 0 0 0 0 0 0 127 0" result="hardAlpha"/>
<feMorphology radius="5.3577" operator="erode" in="SourceAlpha" result="effect1_dropShadow_1_587"/>
<feOffset dy="1.7859"/>
<feGaussianBlur stdDeviation="6.49621"/>
<feComposite in2="hardAlpha" operator="out"/>
<feColorMatrix type="matrix" values="0 0 0 0 0 0 0 0 0 0 0 0 0 0 0 0 0 0 0.25 0"/>
<feBlend mode="normal" in2="BackgroundImageFix" result="effect1_dropShadow_1_587"/>
<feBlend mode="normal" in="SourceGraphic" in2="effect1_dropShadow_1_587" result="shape"/>
</filter>
<filter id="filter1_d_1_587" x="39.4852" y="264.287" width="263.42" height="27.6815" filterUnits="userSpaceOnUse" color-interpolation-filters="sRGB">
<feFlood flood-opacity="0" result="BackgroundImageFix"/>
<feColorMatrix in="SourceAlpha" type="matrix" values="0 0 0 0 0 0 0 0 0 0 0 0 0 0 0 0 0 0 127 0" result="hardAlpha"/>
<feMorphology radius="0.446475" operator="dilate" in="SourceAlpha" result="effect1_dropShadow_1_587"/>
<feOffset/>
<feComposite in2="hardAlpha" operator="out"/>
<feColorMatrix type="matrix" values="0 0 0 0 0.168627 0 0 0 0 0.270588 0 0 0 0 0.913725 0 0 0 1 0"/>
<feBlend mode="normal" in2="BackgroundImageFix" result="effect1_dropShadow_1_587"/>
<feBlend mode="normal" in="SourceGraphic" in2="effect1_dropShadow_1_587" result="shape"/>
</filter>
<linearGradient id="paint0_linear_1_587" x1="171.195" y1="264.733" x2="171.195" y2="291.522" gradientUnits="userSpaceOnUse">
<stop stop-color="#3C52ED"/>
<stop offset="1" stop-color="#2943E9"/>
</linearGradient>
<linearGradient id="paint1_linear_1_587" x1="171.195" y1="264.733" x2="171.195" y2="291.522" gradientUnits="userSpaceOnUse">
<stop stop-color="#8492F9"/>
<stop offset="1" stop-color="#8492F9" stop-opacity="0"/>
</linearGradient>
<clipPath id="clip0_1_587">
<rect x="7.78638" y="6.22421" width="326.82" height="420.58" rx="8.9295" fill="white"/>
</clipPath>
</defs>
</svg>
