<svg width="8" height="8" viewBox="0 0 8 8" fill="none" xmlns="http://www.w3.org/2000/svg">
<path d="M0.569336 4.32861C0.569336 4.54075 0.746844 4.71393 0.954658 4.71393H3.75582V7.51509C3.75582 7.7229 3.92899 7.90041 4.14114 7.90041C4.35328 7.90041 4.53079 7.7229 4.53079 7.51509V4.71393H7.32762C7.53543 4.71393 7.71294 4.54075 7.71294 4.32861C7.71294 4.11646 7.53543 3.93896 7.32762 3.93896H4.53079V1.14213C4.53079 0.934313 4.35328 0.756805 4.14114 0.756805C3.92899 0.756805 3.75582 0.934313 3.75582 1.14213V3.93896H0.954658C0.746844 3.93896 0.569336 4.11646 0.569336 4.32861Z" fill="#8C8C8C"/>
</svg>
