<svg width="6" height="8" viewBox="0 0 6 8" fill="none" xmlns="http://www.w3.org/2000/svg">
<path d="M2.96319 5.42214C3.09929 5.42214 3.2164 5.3082 3.2164 5.17527V1.92472L3.19741 1.44996L3.40947 1.67468L3.89057 2.18743C3.93488 2.23807 3.99818 2.26339 4.06148 2.26339C4.19125 2.26339 4.29253 2.16843 4.29253 2.03867C4.29253 1.9722 4.26405 1.92156 4.21657 1.87408L3.14677 0.842263C3.08347 0.778961 3.02966 0.756805 2.96319 0.756805C2.89989 0.756805 2.84609 0.778961 2.77962 0.842263L1.70982 1.87408C1.66234 1.92156 1.63702 1.9722 1.63702 2.03867C1.63702 2.16843 1.73198 2.26339 1.86491 2.26339C1.92505 2.26339 1.99468 2.23807 2.03899 2.18743L2.51692 1.67468L2.73214 1.44996L2.71315 1.92472V5.17527C2.71315 5.3082 2.8271 5.42214 2.96319 5.42214ZM1.1496 7.90041H4.77996C5.44146 7.90041 5.77379 7.57124 5.77379 6.91923V3.76047C5.77379 3.10847 5.44146 2.7793 4.77996 2.7793H3.8969V3.28888H4.77046C5.0838 3.28888 5.26421 3.45979 5.26421 3.78896V6.89075C5.26421 7.21991 5.0838 7.39083 4.77046 7.39083H1.15593C0.839421 7.39083 0.665341 7.21991 0.665341 6.89075V3.78896C0.665341 3.45979 0.839421 3.28888 1.15593 3.28888H2.03266V2.7793H1.1496C0.488096 2.7793 0.155762 3.10847 0.155762 3.76047V6.91923C0.155762 7.57124 0.488096 7.90041 1.1496 7.90041Z" fill="#8C8C8C"/>
</svg>
