<svg width="12" height="12" viewBox="0 0 12 12" fill="none" xmlns="http://www.w3.org/2000/svg">
<rect x="0.897341" y="0.865309" width="10.1796" height="10.1796" rx="1.8752" fill="white"/>
<rect x="0.897341" y="0.865309" width="10.1796" height="10.1796" rx="1.8752" stroke="#EAEAEA" stroke-width="0.53577"/>
<path d="M4.39267 7.95513V7.55487L5.64838 6.2416C5.81581 6.0672 5.94574 5.92419 6.03818 5.81257C6.13061 5.69921 6.19514 5.59805 6.23177 5.5091C6.27014 5.42016 6.28932 5.32424 6.28932 5.22134V5.2161C6.28932 5.09228 6.26229 4.9824 6.20822 4.88648C6.1559 4.78881 6.08004 4.71295 5.98062 4.65888C5.88121 4.60307 5.76262 4.57517 5.62484 4.57517C5.48532 4.57517 5.36236 4.60395 5.25597 4.6615C5.14959 4.71905 5.06675 4.79928 5.00745 4.90218C4.94815 5.00508 4.9185 5.12541 4.9185 5.26319V5.27366L4.3639 5.27104L4.36128 5.26581C4.36302 5.0356 4.41883 4.83242 4.52871 4.65627C4.63858 4.47837 4.79119 4.33972 4.98652 4.24031C5.18185 4.13916 5.40596 4.08858 5.65885 4.08858C5.89255 4.08858 6.10096 4.1348 6.28409 4.22723C6.46896 4.31792 6.61458 4.44437 6.72097 4.60656C6.82736 4.76701 6.88055 4.95101 6.88055 5.15855V5.1664C6.88055 5.30941 6.85439 5.44806 6.80207 5.58235C6.74975 5.71665 6.65906 5.86402 6.53 6.02447C6.40268 6.18492 6.22479 6.37851 5.99632 6.60524L5.04407 7.55487L5.19581 7.29065V7.55487L5.04669 7.45284H6.94072V7.95513H4.39267Z" fill="#6A7385"/>
</svg>
