<svg width="16" height="16" viewBox="0 0 16 16" fill="none" xmlns="http://www.w3.org/2000/svg">
<path opacity="0.28" d="M4.84214 2.08089C5.53943 1.70288 6.28419 2.25559 6.28419 2.95283V7.0492C6.28419 8.52196 7.47809 9.71587 8.95085 9.71587H13.0472C13.7445 9.71587 14.2972 10.4606 13.9192 11.1579C12.7871 13.2462 10.5745 14.6667 8.02917 14.6667C4.33118 14.6667 1.33337 11.6689 1.33337 7.97089C1.33337 5.42557 2.75384 3.213 4.84214 2.08089Z" fill="#8891A3"/>
<path d="M7.36243 2.84609C7.36243 2.0105 8.06455 1.20475 9.02913 1.34932C11.9271 1.78368 14.2163 4.07283 14.6506 6.97081C14.7952 7.93539 13.9894 8.63752 13.1539 8.63752H8.93346C8.0658 8.63752 7.36243 7.93414 7.36243 7.06648V2.84609Z" fill="#8891A3"/>
</svg>
