<svg width="16" height="16" viewBox="0 0 16 16" fill="none" xmlns="http://www.w3.org/2000/svg">
<path opacity="0.28" d="M8.99384 1.48618C8.34674 1.28407 7.6534 1.28407 7.0063 1.48618C6.60007 1.61306 6.24916 1.83689 5.88608 2.12887C5.53403 2.41198 5.13127 2.79237 4.63281 3.26315L2.82188 4.97345C2.38425 5.38652 2.08135 5.67242 1.85999 6.01794C1.66441 6.32322 1.51995 6.65837 1.43229 7.01018C1.33308 7.40835 1.33321 7.82487 1.33339 8.42667L1.3334 9.76182C1.3334 10.4843 1.33339 11.0671 1.37195 11.539C1.41165 12.0249 1.49552 12.4517 1.69672 12.8466C2.01629 13.4738 2.52623 13.9837 3.15344 14.3033C3.5483 14.5045 3.97509 14.5884 4.46099 14.6281C4.9329 14.6666 5.51564 14.6666 6.23811 14.6666H9.76196C10.4844 14.6666 11.0672 14.6666 11.5392 14.6281C12.025 14.5884 12.4518 14.5045 12.8467 14.3033C13.4739 13.9837 13.9839 13.4738 14.3034 12.8466C14.5046 12.4517 14.5885 12.0249 14.6282 11.539C14.6668 11.0671 14.6667 10.4844 14.6667 9.76191L14.6668 8.42666C14.6669 7.82487 14.6671 7.40835 14.5679 7.01018C14.4802 6.65838 14.3357 6.32323 14.1402 6.01794C13.9188 5.67242 13.6159 5.38652 13.1782 4.97343L11.3673 3.26314C10.8689 2.79237 10.4661 2.41198 10.1141 2.12887C9.75099 1.83689 9.40007 1.61306 8.99384 1.48618Z" fill="#6A7385"/>
<path d="M6 11.3334H10" stroke="#6A7385" stroke-width="1.33333" stroke-linecap="round" stroke-linejoin="round"/>
<path d="M13.9209 7.17144C13.8508 6.89 13.7352 6.62188 13.5787 6.37765C13.4022 6.10213 13.1558 5.86939 12.6629 5.40391L10.9296 3.76687C9.89858 2.79315 9.38308 2.30629 8.79501 2.12261C8.27733 1.96092 7.72266 1.96092 7.20498 2.12261C6.6169 2.30629 6.1014 2.79315 5.0704 3.76687L3.33706 5.40391C2.84421 5.86939 2.59777 6.10213 2.42126 6.37765C2.2648 6.62188 2.14923 6.89 2.0791 7.17144" stroke="#6A7385" stroke-width="1.33333" stroke-linecap="round" stroke-linejoin="round"/>
</svg>
