<svg width="16" height="16" viewBox="0 0 16 16" fill="none" xmlns="http://www.w3.org/2000/svg">
<path opacity="0.28" fill-rule="evenodd" clip-rule="evenodd" d="M6.04079 2.17967L5.07617 2.02267L5.00709 1.7809L5.64935 1.59739C5.93301 1.51624 6.14751 1.45487 6.37039 1.42996C6.56727 1.40795 6.76599 1.40795 6.96287 1.42996C7.18575 1.45487 7.40025 1.51624 7.68391 1.59738L8.32617 1.7809C8.50806 1.83287 8.56147 1.84753 8.6116 1.85726C8.83536 1.9007 9.06653 1.88605 9.28302 1.8147C9.33152 1.79872 9.38265 1.77743 9.55653 1.70292L9.61541 1.67759C9.82356 1.5879 10.036 1.49635 10.2305 1.46604C11.0112 1.34438 11.7565 1.83583 11.9522 2.60129C12.0009 2.792 12.0005 3.02334 12 3.24999L12 3.31411V6.66675L12.9546 6.66675C13.1228 6.66673 13.2867 6.66671 13.4255 6.67805C13.5778 6.6905 13.7577 6.71988 13.9386 6.81208C14.1895 6.93991 14.3935 7.14388 14.5213 7.39477C14.6135 7.57572 14.6429 7.75554 14.6553 7.90793C14.6667 8.04667 14.6667 8.21047 14.6666 8.37868L14.6666 12.6668C14.6666 13.7713 13.7712 14.6668 12.6666 14.6668H5.70518C5.07565 14.6668 4.56283 14.6668 4.14648 14.6328C3.71616 14.5976 3.33053 14.5228 2.97133 14.3398C2.40684 14.0522 1.9479 13.5932 1.66028 13.0287C1.47725 12.6695 1.40246 12.2839 1.3673 11.8536C1.33328 11.4372 1.33329 10.9244 1.3333 10.2949L1.3333 3.31411L1.33321 3.25C1.33277 3.02335 1.33232 2.792 1.38108 2.60129C1.50413 2.11996 1.84451 1.74697 2.27435 1.56664L5.07617 2.02267L5.00709 1.7809C4.8252 1.83287 4.77179 1.84753 4.72166 1.85726C4.4979 1.9007 4.26673 1.88605 4.05024 1.8147C4.00174 1.79872 3.95061 1.77743 3.77674 1.70292L3.71784 1.67759C3.50969 1.5879 3.29723 1.49635 3.10273 1.46604C2.81297 1.42088 2.52807 1.4602 2.27435 1.56664M12 12.6668V8.00009H12.9333C13.131 8.00009 13.2392 8.00061 13.3169 8.00696L13.3257 8.00772L13.3264 8.01651C13.3328 8.09423 13.3333 8.2024 13.3333 8.40009V12.6668C13.3333 13.0349 13.0348 13.3334 12.6666 13.3334C12.2984 13.3334 12 13.0349 12 12.6668Z" fill="#8891A3"/>
<path d="M8.53757 6.33329C8.40052 5.75822 7.91715 5.33329 7.34189 5.33329H6.68571M4.83386 9.66663C4.97091 10.2417 5.45428 10.6666 6.02954 10.6666H6.68571M6.68571 5.33329H6.06843C5.3866 5.33329 4.83386 5.93025 4.83386 6.66663C4.83386 7.40301 5.3866 7.99996 6.06843 7.99996L7.303 7.99996C7.98483 7.99996 8.53757 8.59691 8.53757 9.33329C8.53757 10.0697 7.98483 10.6666 7.303 10.6666H6.68571M6.68571 5.33329L6.68571 4.66663M6.68571 10.6666V11.3333" stroke="#8891A3" stroke-width="1.33333" stroke-linecap="round" stroke-linejoin="round"/>
</svg>
