<svg width="16" height="16" viewBox="0 0 16 16" fill="none" xmlns="http://www.w3.org/2000/svg">
<path d="M8.00004 3.99999C7.63185 3.99999 7.33337 3.70151 7.33337 3.33332C7.33337 2.96513 7.63185 2.66666 8.00004 2.66666C8.36823 2.66666 8.66671 2.96513 8.66671 3.33332C8.66671 3.70151 8.36823 3.99999 8.00004 3.99999Z" stroke="#7D7D7D" stroke-width="1.33333" stroke-linecap="round" stroke-linejoin="round"/>
<path d="M8.00004 8.66666C7.63185 8.66666 7.33337 8.36818 7.33337 7.99999C7.33337 7.6318 7.63185 7.33332 8.00004 7.33332C8.36823 7.33332 8.66671 7.6318 8.66671 7.99999C8.66671 8.36818 8.36823 8.66666 8.00004 8.66666Z" stroke="#7D7D7D" stroke-width="1.33333" stroke-linecap="round" stroke-linejoin="round"/>
<path d="M8.00004 13.3333C7.63185 13.3333 7.33337 13.0348 7.33337 12.6667C7.33337 12.2985 7.63185 12 8.00004 12C8.36823 12 8.66671 12.2985 8.66671 12.6667C8.66671 13.0348 8.36823 13.3333 8.00004 13.3333Z" stroke="#7D7D7D" stroke-width="1.33333" stroke-linecap="round" stroke-linejoin="round"/>
</svg>
