<svg width="16" height="16" viewBox="0 0 16 16" fill="none" xmlns="http://www.w3.org/2000/svg">
<path opacity="0.28" d="M2 10.2667V3.31407C2 3.01937 2 2.87202 2.02701 2.76638C2.13762 2.33373 2.55887 2.05595 3.00012 2.12472C3.10785 2.14151 3.24328 2.19955 3.51416 2.31564C3.67763 2.3857 3.75936 2.42073 3.84162 2.44783C4.16635 2.55485 4.5131 2.57683 4.84875 2.51167C4.93377 2.49516 5.01927 2.47073 5.19028 2.42187L5.78756 2.25122C6.11462 2.15777 6.27815 2.11105 6.44449 2.09246C6.59215 2.07595 6.74119 2.07595 6.88885 2.09246C7.05518 2.11105 7.21871 2.15777 7.54577 2.25122L8.14306 2.42187L8.14306 2.42187C8.31407 2.47073 8.39957 2.49516 8.48459 2.51167C8.82023 2.57683 9.16698 2.55485 9.49171 2.44783C9.57397 2.42073 9.6557 2.3857 9.81917 2.31564C10.09 2.19955 10.2255 2.14151 10.3332 2.12472C10.7745 2.05595 11.1957 2.33373 11.3063 2.76638C11.3333 2.87202 11.3333 3.01937 11.3333 3.31407V7.33338V12.6667C11.3333 13.4031 11.9303 14 12.6667 14H5.73333C4.42654 14 3.77315 14 3.27402 13.7457C2.83498 13.522 2.47802 13.1651 2.25432 12.726C2 12.2269 2 11.5735 2 10.2667Z" fill="#6A7385"/>
<path d="M8.53752 6.33338C8.40047 5.7583 7.91711 5.33338 7.34185 5.33338H6.68567M4.83382 9.66671C4.97087 10.2418 5.45423 10.6667 6.02949 10.6667H6.68567M6.68567 5.33338H6.06838C5.38655 5.33338 4.83382 5.93033 4.83382 6.66671C4.83382 7.40309 5.38655 8.00005 6.06838 8.00005L7.30295 8.00005C7.98478 8.00005 8.53752 8.597 8.53752 9.33338C8.53752 10.0698 7.98478 10.6667 7.30295 10.6667H6.68567M6.68567 5.33338L6.68567 4.66671M6.68567 10.6667V11.3334M11.3333 7.33338V12.6667C11.3333 13.4031 11.9303 14 12.6667 14M11.3333 7.33338V3.31407C11.3333 3.01937 11.3333 2.87202 11.3063 2.76638C11.1957 2.33373 10.7745 2.05595 10.3332 2.12472C10.2255 2.14151 10.09 2.19955 9.81917 2.31564C9.6557 2.3857 9.57397 2.42073 9.49171 2.44783C9.16698 2.55485 8.82023 2.57683 8.48459 2.51167C8.39957 2.49516 8.31406 2.47073 8.14306 2.42187L7.54577 2.25122C7.21871 2.15777 7.05518 2.11105 6.88885 2.09246C6.74119 2.07595 6.59215 2.07595 6.44449 2.09246C6.27815 2.11105 6.11462 2.15777 5.78756 2.25122L5.19028 2.42187C5.01927 2.47073 4.93377 2.49516 4.84875 2.51167C4.5131 2.57683 4.16635 2.55485 3.84162 2.44783C3.75936 2.42073 3.67763 2.3857 3.51416 2.31564C3.24328 2.19955 3.10785 2.14151 3.00012 2.12472C2.55887 2.05595 2.13762 2.33373 2.02701 2.76638C2 2.87202 2 3.01937 2 3.31407V10.2667C2 11.5735 2 12.2269 2.25432 12.726C2.47802 13.1651 2.83498 13.522 3.27402 13.7457C3.77315 14 4.42654 14 5.73333 14H12.6667M11.3333 7.33338H12.9333C13.3067 7.33338 13.4934 7.33338 13.636 7.40604C13.7614 7.46996 13.8634 7.57194 13.9273 7.69739C14 7.83999 14 8.02668 14 8.40005V12.6667C14 13.4031 13.403 14 12.6667 14" stroke="#6A7385" stroke-linecap="round" stroke-linejoin="round"/>
</svg>
