<svg width="16" height="16" viewBox="0 0 16 16" fill="none" xmlns="http://www.w3.org/2000/svg">
<path d="M9.36711 7.57567C9.24572 7.39244 9.1043 7.21856 8.94286 7.05712C8.17173 6.28599 7.11677 5.97166 6.11426 6.11414C5.42443 6.21217 4.75943 6.5265 4.22881 7.05712L3.286 7.99993C1.98426 9.30167 1.98426 11.4122 3.286 12.714C4.58775 14.0157 6.6983 14.0157 8.00005 12.714L8.47145 12.2426M6.63298 8.42418C6.75438 8.60742 6.8958 8.7813 7.05724 8.94274C7.82837 9.71387 8.88332 10.0282 9.88584 9.88572C10.5757 9.78768 11.2407 9.47335 11.7713 8.94274L12.7141 7.99993C14.0158 6.69818 14.0158 4.58763 12.7141 3.28588C11.4123 1.98413 9.3018 1.98413 8.00005 3.28588L7.52864 3.75729" stroke="#3461FF" stroke-width="1.33333" stroke-linecap="round" stroke-linejoin="round"/>
</svg>
