<svg width="16" height="16" viewBox="0 0 16 16" fill="none" xmlns="http://www.w3.org/2000/svg">
<path opacity="0.28" d="M6.93213 2.85278C7.19004 1.71574 8.80996 1.71574 9.06788 2.85278L9.10207 3.00352C9.26919 3.7403 10.1146 4.09048 10.7538 3.68768L10.8845 3.60526C11.8709 2.98363 13.0164 4.12909 12.3947 5.11547L12.3123 5.24624C11.9095 5.88539 12.2597 6.73081 12.9965 6.89793L13.1472 6.93213C14.2843 7.19004 14.2843 8.80996 13.1472 9.06788L12.9965 9.10207C12.2597 9.26919 11.9095 10.1146 12.3123 10.7538L12.3947 10.8845C13.0164 11.8709 11.8709 13.0164 10.8845 12.3947L10.7538 12.3123C10.1146 11.9095 9.26919 12.2597 9.10207 12.9965L9.06788 13.1472C8.80996 14.2843 7.19004 14.2843 6.93213 13.1472L6.89793 12.9965C6.73081 12.2597 5.88539 11.9095 5.24624 12.3123L5.11547 12.3947C4.12909 13.0164 2.98363 11.8709 3.60526 10.8845L3.68768 10.7538C4.09048 10.1146 3.7403 9.26919 3.00352 9.10207L2.85278 9.06787C1.71574 8.80996 1.71574 7.19004 2.85278 6.93213L3.00352 6.89793C3.7403 6.73081 4.09048 5.88539 3.68768 5.24624L3.60526 5.11546C2.98363 4.12909 4.12909 2.98363 5.11546 3.60526L5.24624 3.68768C5.88539 4.09048 6.73081 3.7403 6.89793 3.00352L6.93213 2.85278Z" fill="#8891A3"/>
<path d="M6.93213 2.85278C7.19004 1.71574 8.80996 1.71574 9.06788 2.85278L9.10207 3.00352C9.26919 3.7403 10.1146 4.09048 10.7538 3.68768L10.8845 3.60526C11.8709 2.98363 13.0164 4.12909 12.3947 5.11547L12.3123 5.24624C11.9095 5.88539 12.2597 6.73081 12.9965 6.89793L13.1472 6.93213C14.2843 7.19004 14.2843 8.80996 13.1472 9.06788L12.9965 9.10207C12.2597 9.26919 11.9095 10.1146 12.3123 10.7538L12.3947 10.8845C13.0164 11.8709 11.8709 13.0164 10.8845 12.3947L10.7538 12.3123C10.1146 11.9095 9.26919 12.2597 9.10207 12.9965L9.06788 13.1472C8.80996 14.2843 7.19004 14.2843 6.93213 13.1472L6.89793 12.9965C6.73081 12.2597 5.88539 11.9095 5.24624 12.3123L5.11547 12.3947C4.12909 13.0164 2.98363 11.8709 3.60526 10.8845L3.68768 10.7538C4.09048 10.1146 3.7403 9.26919 3.00352 9.10207L2.85278 9.06788C1.71574 8.80996 1.71574 7.19004 2.85278 6.93213L3.00352 6.89793C3.7403 6.73081 4.09048 5.88539 3.68768 5.24624L3.60526 5.11546C2.98363 4.12909 4.12909 2.98363 5.11546 3.60526L5.24624 3.68768C5.88539 4.09048 6.73081 3.7403 6.89793 3.00352L6.93213 2.85278Z" stroke="#8891A3" stroke-width="1.33333" stroke-linecap="round" stroke-linejoin="round"/>
<path d="M7.32723 8.00001C7.32723 7.63182 7.63183 7.33334 8.00002 7.33334C8.36821 7.33334 8.67281 7.63182 8.67281 8.00001C8.67281 8.3682 8.36821 8.66667 8.00002 8.66667C7.63183 8.66667 7.32723 8.3682 7.32723 8.00001Z" stroke="#8891A3" stroke-width="1.33333" stroke-linecap="round" stroke-linejoin="round"/>
</svg>
